<svg preserveAspectRatio="none" width="100%" height="100%" overflow="visible" style="display: block;" viewBox="0 0 13.7501 17.502" fill="none" xmlns="http://www.w3.org/2000/svg">
<g id="Vector" filter="url(#filter0_ii_0_237)">
<path d="M10.6251 16.877C10.6251 17.0428 10.5593 17.2017 10.442 17.3189C10.3248 17.4361 10.1659 17.502 10.0001 17.502H3.7501C3.58434 17.502 3.42537 17.4361 3.30816 17.3189C3.19095 17.2017 3.1251 17.0428 3.1251 16.877C3.1251 16.7112 3.19095 16.5523 3.30816 16.4351C3.42537 16.3178 3.58434 16.252 3.7501 16.252H10.0001C10.1659 16.252 10.3248 16.3178 10.442 16.4351C10.5593 16.5523 10.6251 16.7112 10.6251 16.877ZM13.7501 6.877C13.7528 7.9189 13.5174 8.94766 13.0619 9.88474C12.6065 10.8218 11.9429 11.6425 11.122 12.284C10.9685 12.4017 10.8439 12.5529 10.7578 12.7261C10.6717 12.8993 10.6263 13.0898 10.6251 13.2832V13.752C10.6251 14.0835 10.4934 14.4015 10.259 14.6359C10.0246 14.8703 9.70662 15.002 9.3751 15.002H4.3751C4.04358 15.002 3.72564 14.8703 3.49122 14.6359C3.2568 14.4015 3.1251 14.0835 3.1251 13.752V13.2832C3.12497 13.0921 3.08103 12.9036 2.99666 12.7322C2.91228 12.5607 2.78972 12.4109 2.63838 12.2942C1.81948 11.6564 1.15639 10.8407 0.699304 9.9088C0.24222 8.9769 0.00312013 7.95323 0.000102226 6.91528C-0.0202103 3.19184 2.98916 0.091058 6.70948 0.00199546C7.62616 -0.0200946 8.53799 0.141412 9.39132 0.477009C10.2446 0.812607 11.0222 1.31551 11.6783 1.95613C12.3343 2.59674 12.8556 3.36213 13.2114 4.20722C13.5672 5.05232 13.7504 5.96005 13.7501 6.877ZM11.2415 6.14731C11.0794 5.24207 10.6439 4.40822 9.99357 3.75801C9.34323 3.1078 8.50928 2.67246 7.60401 2.51059C7.52306 2.49694 7.44022 2.49938 7.36021 2.51775C7.2802 2.53612 7.2046 2.57007 7.13771 2.61766C7.07082 2.66525 7.01396 2.72555 6.97038 2.79511C6.9268 2.86467 6.89734 2.94214 6.8837 3.02309C6.87005 3.10404 6.87248 3.18688 6.89085 3.26689C6.90922 3.34689 6.94317 3.4225 6.99076 3.48939C7.03835 3.55628 7.09865 3.61313 7.16822 3.65672C7.23778 3.7003 7.31525 3.72976 7.3962 3.7434C8.69073 3.96137 9.78917 5.05981 10.0087 6.35668C10.0334 6.50225 10.1089 6.63436 10.2217 6.72959C10.3345 6.82483 10.4775 6.87705 10.6251 6.877C10.6604 6.87678 10.6957 6.87391 10.7306 6.8684C10.8939 6.84051 11.0395 6.74888 11.1354 6.61365C11.2312 6.47843 11.2694 6.31068 11.2415 6.14731Z" fill="url(#paint0_linear_0_237)"/>
</g>
<defs>
<filter id="filter0_ii_0_237" x="-0.933333" y="-1.86667" width="14.6835" height="19.3687" filterUnits="userSpaceOnUse" color-interpolation-filters="sRGB">
<feFlood flood-opacity="0" result="BackgroundImageFix"/>
<feBlend mode="normal" in="SourceGraphic" in2="BackgroundImageFix" result="shape"/>
<feColorMatrix in="SourceAlpha" type="matrix" values="0 0 0 0 0 0 0 0 0 0 0 0 0 0 0 0 0 0 127 0" result="hardAlpha"/>
<feOffset dy="-0.186667"/>
<feGaussianBlur stdDeviation="0.326667"/>
<feComposite in2="hardAlpha" operator="arithmetic" k2="-1" k3="1"/>
<feColorMatrix type="matrix" values="0 0 0 0 1 0 0 0 0 1 0 0 0 0 1 0 0 0 0.36 0"/>
<feBlend mode="plus-lighter" in2="shape" result="effect1_innerShadow_0_237"/>
<feColorMatrix in="SourceAlpha" type="matrix" values="0 0 0 0 0 0 0 0 0 0 0 0 0 0 0 0 0 0 127 0" result="hardAlpha"/>
<feOffset dx="-0.933333" dy="-2.42667"/>
<feGaussianBlur stdDeviation="0.933333"/>
<feComposite in2="hardAlpha" operator="arithmetic" k2="-1" k3="1"/>
<feColorMatrix type="matrix" values="0 0 0 0 0 0 0 0 0 0 0 0 0 0 0 0 0 0 0.25 0"/>
<feBlend mode="overlay" in2="effect1_innerShadow_0_237" result="effect2_innerShadow_0_237"/>
</filter>
<linearGradient id="paint0_linear_0_237" x1="6.87506" y1="-8.1676" x2="6.87506" y2="28.0032" gradientUnits="userSpaceOnUse">
<stop stop-color="white"/>
<stop offset="1" stop-color="white" stop-opacity="0.2"/>
</linearGradient>
</defs>
</svg>
