<svg preserveAspectRatio="none" width="100%" height="100%" overflow="visible" style="display: block;" viewBox="0 0 13.75 17.4998" fill="none" xmlns="http://www.w3.org/2000/svg">
<g id="Vector" filter="url(#filter0_ii_0_276)">
<path d="M6.875 0C5.05227 0.00206776 3.30479 0.72706 2.01592 2.01592C0.72706 3.30479 0.00206776 5.05227 0 6.875C0 12.7578 6.25 17.2008 6.51641 17.3867C6.62149 17.4603 6.74669 17.4998 6.875 17.4998C7.00331 17.4998 7.12851 17.4603 7.23359 17.3867C7.5 17.2008 13.75 12.7578 13.75 6.875C13.7479 5.05227 13.0229 3.30479 11.7341 2.01592C10.4452 0.72706 8.69773 0.00206776 6.875 0ZM6.875 4.375C7.36945 4.375 7.8528 4.52162 8.26393 4.79633C8.67505 5.07103 8.99548 5.46148 9.1847 5.91829C9.37392 6.37511 9.42343 6.87777 9.32696 7.36273C9.2305 7.84768 8.9924 8.29314 8.64277 8.64277C8.29314 8.9924 7.84768 9.2305 7.36273 9.32696C6.87777 9.42343 6.37511 9.37392 5.91829 9.1847C5.46148 8.99548 5.07103 8.67505 4.79633 8.26393C4.52162 7.8528 4.375 7.36945 4.375 6.875C4.375 6.21196 4.63839 5.57607 5.10723 5.10723C5.57607 4.63839 6.21196 4.375 6.875 4.375Z" fill="url(#paint0_linear_0_276)"/>
</g>
<defs>
<filter id="filter0_ii_0_276" x="-0.933333" y="-1.86667" width="14.6833" height="19.3665" filterUnits="userSpaceOnUse" color-interpolation-filters="sRGB">
<feFlood flood-opacity="0" result="BackgroundImageFix"/>
<feBlend mode="normal" in="SourceGraphic" in2="BackgroundImageFix" result="shape"/>
<feColorMatrix in="SourceAlpha" type="matrix" values="0 0 0 0 0 0 0 0 0 0 0 0 0 0 0 0 0 0 127 0" result="hardAlpha"/>
<feOffset dy="-0.186667"/>
<feGaussianBlur stdDeviation="0.326667"/>
<feComposite in2="hardAlpha" operator="arithmetic" k2="-1" k3="1"/>
<feColorMatrix type="matrix" values="0 0 0 0 1 0 0 0 0 1 0 0 0 0 1 0 0 0 0.36 0"/>
<feBlend mode="plus-lighter" in2="shape" result="effect1_innerShadow_0_276"/>
<feColorMatrix in="SourceAlpha" type="matrix" values="0 0 0 0 0 0 0 0 0 0 0 0 0 0 0 0 0 0 127 0" result="hardAlpha"/>
<feOffset dx="-0.933333" dy="-2.42667"/>
<feGaussianBlur stdDeviation="0.933333"/>
<feComposite in2="hardAlpha" operator="arithmetic" k2="-1" k3="1"/>
<feColorMatrix type="matrix" values="0 0 0 0 0 0 0 0 0 0 0 0 0 0 0 0 0 0 0.25 0"/>
<feBlend mode="overlay" in2="effect1_innerShadow_0_276" result="effect2_innerShadow_0_276"/>
</filter>
<linearGradient id="paint0_linear_0_276" x1="6.875" y1="-8.16658" x2="6.875" y2="27.9997" gradientUnits="userSpaceOnUse">
<stop stop-color="white"/>
<stop offset="1" stop-color="white" stop-opacity="0.2"/>
</linearGradient>
</defs>
</svg>
