<svg preserveAspectRatio="none" width="100%" height="100%" overflow="visible" style="display: block;" viewBox="0 0 17.499 17.4966" fill="none" xmlns="http://www.w3.org/2000/svg">
<g id="Vector" filter="url(#filter0_ii_0_242)">
<path d="M17.4531 1.58565C17.4531 1.58565 17.4531 1.59347 17.4531 1.59737L12.9062 16.5927C12.8374 16.8362 12.6957 17.0529 12.5002 17.2137C12.3047 17.3744 12.0647 17.4715 11.8124 17.4919C11.7765 17.495 11.7406 17.4966 11.7046 17.4966C11.4682 17.4973 11.2365 17.4304 11.0369 17.3038C10.8373 17.1771 10.6781 16.996 10.5781 16.7817L7.73431 10.9458C7.70586 10.8873 7.69636 10.8214 7.70714 10.7573C7.71792 10.6931 7.74845 10.634 7.79447 10.588L12.3195 6.063C12.4317 5.94483 12.4934 5.78749 12.4913 5.62451C12.4892 5.46154 12.4235 5.30582 12.3083 5.19057C12.193 5.07532 12.0373 5.00965 11.8744 5.00757C11.7114 5.00548 11.554 5.06714 11.4359 5.1794L6.90853 9.7044C6.86257 9.75042 6.80339 9.78095 6.73925 9.79173C6.67511 9.80251 6.6092 9.79302 6.55072 9.76456L0.709311 6.92159C0.480889 6.812 0.291158 6.6356 0.165262 6.41574C0.039365 6.19589 -0.0167538 5.94297 0.00434177 5.6905C0.0254374 5.43803 0.122752 5.19793 0.283388 5.00201C0.444025 4.8061 0.660401 4.66363 0.903842 4.59347L15.8992 0.0465919H15.9109C16.1244 -0.0133914 16.35 -0.0154942 16.5646 0.0404991C16.7792 0.0964924 16.975 0.208566 17.132 0.365221C17.2889 0.521875 17.4014 0.717471 17.4578 0.931941C17.5143 1.14641 17.5126 1.37203 17.4531 1.58565Z" fill="url(#paint0_linear_0_242)"/>
</g>
<defs>
<filter id="filter0_ii_0_242" x="-0.933333" y="-1.86667" width="18.4323" height="19.3633" filterUnits="userSpaceOnUse" color-interpolation-filters="sRGB">
<feFlood flood-opacity="0" result="BackgroundImageFix"/>
<feBlend mode="normal" in="SourceGraphic" in2="BackgroundImageFix" result="shape"/>
<feColorMatrix in="SourceAlpha" type="matrix" values="0 0 0 0 0 0 0 0 0 0 0 0 0 0 0 0 0 0 127 0" result="hardAlpha"/>
<feOffset dy="-0.186667"/>
<feGaussianBlur stdDeviation="0.326667"/>
<feComposite in2="hardAlpha" operator="arithmetic" k2="-1" k3="1"/>
<feColorMatrix type="matrix" values="0 0 0 0 1 0 0 0 0 1 0 0 0 0 1 0 0 0 0.36 0"/>
<feBlend mode="plus-lighter" in2="shape" result="effect1_innerShadow_0_242"/>
<feColorMatrix in="SourceAlpha" type="matrix" values="0 0 0 0 0 0 0 0 0 0 0 0 0 0 0 0 0 0 127 0" result="hardAlpha"/>
<feOffset dx="-0.933333" dy="-2.42667"/>
<feGaussianBlur stdDeviation="0.933333"/>
<feComposite in2="hardAlpha" operator="arithmetic" k2="-1" k3="1"/>
<feColorMatrix type="matrix" values="0 0 0 0 0 0 0 0 0 0 0 0 0 0 0 0 0 0 0.25 0"/>
<feBlend mode="overlay" in2="effect1_innerShadow_0_242" result="effect2_innerShadow_0_242"/>
</filter>
<linearGradient id="paint0_linear_0_242" x1="8.74948" y1="-8.16508" x2="8.74948" y2="27.9946" gradientUnits="userSpaceOnUse">
<stop stop-color="white"/>
<stop offset="1" stop-color="white" stop-opacity="0.2"/>
</linearGradient>
</defs>
</svg>
