<svg preserveAspectRatio="none" width="100%" height="100%" overflow="visible" style="display: block;" viewBox="0 0 15.6247 15.6248" fill="none" xmlns="http://www.w3.org/2000/svg">
<g id="Vector" filter="url(#filter0_ii_0_280)">
<path d="M15.6156 11.803C15.4763 12.8616 14.9564 13.8333 14.1531 14.5366C13.3497 15.2399 12.3177 15.6268 11.25 15.6248C5.04688 15.6248 7.06925e-06 10.578 7.06925e-06 4.37484C-0.00190698 3.3071 0.384919 2.27517 1.08824 1.47179C1.79155 0.668411 2.76326 0.148519 3.82188 0.00921691C4.08958 -0.0234699 4.36067 0.0312965 4.59468 0.165341C4.8287 0.299385 5.01309 0.505517 5.12032 0.752967L6.77032 4.43656V4.44594C6.85242 4.63535 6.88633 4.84215 6.86901 5.04787C6.8517 5.25359 6.7837 5.45181 6.6711 5.62484C6.65704 5.64594 6.64219 5.66547 6.62657 5.685L5.00001 7.61312C5.58516 8.80219 6.82891 10.035 8.0336 10.6217L9.93516 9.00375C9.95384 8.98805 9.9734 8.97344 9.99376 8.96C10.1666 8.84469 10.3655 8.7743 10.5725 8.7552C10.7794 8.73611 10.9878 8.7689 11.1789 8.85062L11.1891 8.85531L14.8695 10.5045C15.1174 10.6114 15.3241 10.7956 15.4585 11.0297C15.593 11.2637 15.6481 11.535 15.6156 11.803Z" fill="url(#paint0_linear_0_280)"/>
</g>
<defs>
<filter id="filter0_ii_0_280" x="-0.933333" y="-1.86667" width="16.5581" height="17.4915" filterUnits="userSpaceOnUse" color-interpolation-filters="sRGB">
<feFlood flood-opacity="0" result="BackgroundImageFix"/>
<feBlend mode="normal" in="SourceGraphic" in2="BackgroundImageFix" result="shape"/>
<feColorMatrix in="SourceAlpha" type="matrix" values="0 0 0 0 0 0 0 0 0 0 0 0 0 0 0 0 0 0 127 0" result="hardAlpha"/>
<feOffset dy="-0.186667"/>
<feGaussianBlur stdDeviation="0.326667"/>
<feComposite in2="hardAlpha" operator="arithmetic" k2="-1" k3="1"/>
<feColorMatrix type="matrix" values="0 0 0 0 1 0 0 0 0 1 0 0 0 0 1 0 0 0 0.36 0"/>
<feBlend mode="plus-lighter" in2="shape" result="effect1_innerShadow_0_280"/>
<feColorMatrix in="SourceAlpha" type="matrix" values="0 0 0 0 0 0 0 0 0 0 0 0 0 0 0 0 0 0 127 0" result="hardAlpha"/>
<feOffset dx="-0.933333" dy="-2.42667"/>
<feGaussianBlur stdDeviation="0.933333"/>
<feComposite in2="hardAlpha" operator="arithmetic" k2="-1" k3="1"/>
<feColorMatrix type="matrix" values="0 0 0 0 0 0 0 0 0 0 0 0 0 0 0 0 0 0 0.25 0"/>
<feBlend mode="overlay" in2="effect1_innerShadow_0_280" result="effect2_innerShadow_0_280"/>
</filter>
<linearGradient id="paint0_linear_0_280" x1="7.81237" y1="-7.2916" x2="7.81237" y2="24.9998" gradientUnits="userSpaceOnUse">
<stop stop-color="white"/>
<stop offset="1" stop-color="white" stop-opacity="0.2"/>
</linearGradient>
</defs>
</svg>
