<svg preserveAspectRatio="none" width="100%" height="100%" overflow="visible" style="display: block;" viewBox="0 0 16.2444 15.6219" fill="none" xmlns="http://www.w3.org/2000/svg">
<g id="Vector" filter="url(#filter0_ii_0_218)">
<path d="M8.12422 12.8977L12.3992 15.5266C12.5101 15.5939 12.6385 15.6269 12.7682 15.6213C12.8978 15.6157 13.0229 15.5717 13.1275 15.4951C13.2322 15.4184 13.3118 15.3124 13.3563 15.1905C13.4008 15.0686 13.4081 14.9363 13.3773 14.8102L12.2148 9.90473L16.0195 6.62348C16.1165 6.53831 16.1865 6.42658 16.2207 6.30211C16.255 6.17764 16.252 6.04587 16.2122 5.92306C16.1724 5.80026 16.0975 5.69179 15.9968 5.61107C15.896 5.53034 15.7738 5.48088 15.6453 5.46879L10.6523 5.06254L8.72891 0.406295C8.67987 0.286168 8.59617 0.183369 8.48847 0.111007C8.38078 0.0386453 8.25397 0 8.12422 0C7.99447 0 7.86766 0.0386453 7.75997 0.111007C7.65227 0.183369 7.56857 0.286168 7.51953 0.406295L5.5961 5.06254L0.603127 5.46879C0.473725 5.48016 0.35054 5.5294 0.248963 5.61037C0.147385 5.69134 0.0719195 5.80044 0.0319936 5.92405C-0.00793223 6.04767 -0.0105477 6.1803 0.0244741 6.30539C0.0594959 6.43048 0.130602 6.54248 0.228909 6.62739L4.0336 9.90864L2.8711 14.8102C2.84036 14.9363 2.84769 15.0686 2.89216 15.1905C2.93662 15.3124 3.01622 15.4184 3.1209 15.4951C3.22558 15.5717 3.35064 15.6157 3.48028 15.6213C3.60991 15.6269 3.7383 15.5939 3.84922 15.5266L8.12422 12.8977Z" fill="url(#paint0_linear_0_218)"/>
</g>
<defs>
<filter id="filter0_ii_0_218" x="-0.933333" y="-1.86667" width="17.1777" height="17.4886" filterUnits="userSpaceOnUse" color-interpolation-filters="sRGB">
<feFlood flood-opacity="0" result="BackgroundImageFix"/>
<feBlend mode="normal" in="SourceGraphic" in2="BackgroundImageFix" result="shape"/>
<feColorMatrix in="SourceAlpha" type="matrix" values="0 0 0 0 0 0 0 0 0 0 0 0 0 0 0 0 0 0 127 0" result="hardAlpha"/>
<feOffset dy="-0.186667"/>
<feGaussianBlur stdDeviation="0.326667"/>
<feComposite in2="hardAlpha" operator="arithmetic" k2="-1" k3="1"/>
<feColorMatrix type="matrix" values="0 0 0 0 1 0 0 0 0 1 0 0 0 0 1 0 0 0 0.36 0"/>
<feBlend mode="plus-lighter" in2="shape" result="effect1_innerShadow_0_218"/>
<feColorMatrix in="SourceAlpha" type="matrix" values="0 0 0 0 0 0 0 0 0 0 0 0 0 0 0 0 0 0 127 0" result="hardAlpha"/>
<feOffset dx="-0.933333" dy="-2.42667"/>
<feGaussianBlur stdDeviation="0.933333"/>
<feComposite in2="hardAlpha" operator="arithmetic" k2="-1" k3="1"/>
<feColorMatrix type="matrix" values="0 0 0 0 0 0 0 0 0 0 0 0 0 0 0 0 0 0 0.25 0"/>
<feBlend mode="overlay" in2="effect1_innerShadow_0_218" result="effect2_innerShadow_0_218"/>
</filter>
<linearGradient id="paint0_linear_0_218" x1="8.12219" y1="-7.29021" x2="8.12219" y2="24.995" gradientUnits="userSpaceOnUse">
<stop stop-color="white"/>
<stop offset="1" stop-color="white" stop-opacity="0.2"/>
</linearGradient>
</defs>
</svg>
