<svg preserveAspectRatio="none" width="100%" height="100%" overflow="visible" style="display: block;" viewBox="0 0 30 30" fill="none" xmlns="http://www.w3.org/2000/svg">
<g id="design-content-svgrepo-com 1" clip-path="url(#clip0_0_5)">
<g id="Group">
<path id="Vector" d="M4.30852 0.478711H0.478711V4.30852H4.30852V0.478711Z" fill="var(--fill-0, #F6F6F6)" fill-opacity="0.4"/>
<path id="Vector_2" d="M29.5213 0.478711H25.6915V4.30852H29.5213V0.478711Z" fill="var(--fill-0, #F6F6F6)" fill-opacity="0.4"/>
<path id="Vector_3" d="M4.30852 25.6915H0.478711V29.5213H4.30852V25.6915Z" fill="var(--fill-0, #F6F6F6)" fill-opacity="0.4"/>
<path id="Vector_4" d="M29.5213 25.6915H25.6915V29.5213H29.5213V25.6915Z" fill="var(--fill-0, #F6F6F6)" fill-opacity="0.4"/>
</g>
<path id="Vector_5" d="M27.6064 7.34074C27.8708 7.34074 28.0851 7.12646 28.0851 6.86203V4.78723H29.5213C29.7857 4.78723 30 4.57295 30 4.30852V0.478711C30 0.214277 29.7857 0 29.5213 0H25.6915C25.4271 0 25.2128 0.214277 25.2128 0.478711V1.9149H4.78723V0.478711C4.78723 0.214277 4.57289 0 4.30852 0H0.478711C0.214336 0 0 0.214277 0 0.478711V4.30852C0 4.57295 0.214336 4.78723 0.478711 4.78723H1.9149V25.2128H0.478711C0.214336 25.2128 0 25.4271 0 25.6915V29.5213C0 29.7857 0.214336 30 0.478711 30H4.30852C4.57289 30 4.78723 29.7857 4.78723 29.5213V28.0851H25.2128V29.5213C25.2128 29.7857 25.4271 30 25.6915 30H29.5213C29.7857 30 30 29.7857 30 29.5213V25.6915C30 25.4271 29.7857 25.2128 29.5213 25.2128H28.0851V8.77693C28.0851 8.5125 27.8708 8.29822 27.6064 8.29822C27.342 8.29822 27.1277 8.5125 27.1277 8.77693V25.2128H25.6915C25.4271 25.2128 25.2128 25.4271 25.2128 25.6915V27.1277H4.78723V25.6915C4.78723 25.4271 4.57289 25.2128 4.30852 25.2128H2.87232V4.78723H4.30852C4.57289 4.78723 4.78723 4.57295 4.78723 4.30852V2.87232H25.2128V4.30852C25.2128 4.57295 25.4271 4.78723 25.6915 4.78723H27.1277V6.86203C27.1277 7.12641 27.342 7.34074 27.6064 7.34074ZM26.1702 26.1702H29.0425V29.0425H26.1702V26.1702ZM3.8298 29.0426H0.957422V26.1703H3.82975L3.8298 29.0426ZM3.8298 3.8298H0.957422V0.957422H3.82975L3.8298 3.8298ZM26.1702 0.957422H29.0425V3.82975H26.1702V0.957422Z" fill="var(--fill-0, white)"/>
<path id="Vector_6" d="M14.0426 22.6595H6.86168C6.5973 22.6595 6.38297 22.8738 6.38297 23.1383C6.38297 23.4027 6.5973 23.617 6.86168 23.617H14.0426C14.307 23.617 14.5213 23.4027 14.5213 23.1383C14.5213 22.8738 14.307 22.6595 14.0426 22.6595Z" fill="var(--fill-0, white)"/>
<path id="Vector_7" d="M23.1383 22.6595H15.9574C15.693 22.6595 15.4787 22.8738 15.4787 23.1383C15.4787 23.4027 15.693 23.617 15.9574 23.617H23.1383C23.4026 23.617 23.617 23.4027 23.617 23.1383C23.617 22.8738 23.4027 22.6595 23.1383 22.6595Z" fill="var(--fill-0, white)"/>
<path id="Vector_8" d="M14.0426 20.625H6.86168C6.5973 20.625 6.38297 20.8393 6.38297 21.1037C6.38297 21.3681 6.5973 21.5824 6.86168 21.5824H14.0426C14.307 21.5824 14.5213 21.3681 14.5213 21.1037C14.5213 20.8393 14.307 20.625 14.0426 20.625Z" fill="var(--fill-0, white)"/>
<path id="Vector_9" d="M23.1383 20.625H15.9574C15.693 20.625 15.4787 20.8393 15.4787 21.1037C15.4787 21.3681 15.693 21.5824 15.9574 21.5824H23.1383C23.4026 21.5824 23.617 21.3681 23.617 21.1037C23.617 20.8393 23.4027 20.625 23.1383 20.625Z" fill="var(--fill-0, white)"/>
<path id="Vector_10" d="M14.0426 18.5905H6.86168C6.5973 18.5905 6.38297 18.8047 6.38297 19.0692C6.38297 19.3336 6.5973 19.5479 6.86168 19.5479H14.0426C14.307 19.5479 14.5213 19.3336 14.5213 19.0692C14.5213 18.8047 14.307 18.5905 14.0426 18.5905Z" fill="var(--fill-0, white)"/>
<path id="Vector_11" d="M23.1383 18.5905H15.9574C15.693 18.5905 15.4787 18.8047 15.4787 19.0692C15.4787 19.3336 15.693 19.5479 15.9574 19.5479H23.1383C23.4026 19.5479 23.617 19.3336 23.617 19.0692C23.617 18.8047 23.4027 18.5905 23.1383 18.5905Z" fill="var(--fill-0, white)"/>
<path id="Vector_12" d="M23.1383 16.5558H6.86168C6.5973 16.5558 6.38297 16.7701 6.38297 17.0345C6.38297 17.2989 6.5973 17.5132 6.86168 17.5132H23.1383C23.4026 17.5132 23.617 17.2989 23.617 17.0345C23.617 16.7701 23.4027 16.5558 23.1383 16.5558Z" fill="var(--fill-0, white)"/>
<path id="Vector_13" d="M23.5896 15.1583C23.5927 15.1496 23.5956 15.1407 23.5982 15.1318C23.6002 15.1246 23.602 15.1174 23.6037 15.1102C23.6055 15.1025 23.6072 15.095 23.6087 15.0873C23.6103 15.0785 23.6116 15.0697 23.6127 15.0609C23.6135 15.0544 23.6143 15.048 23.6149 15.0414C23.6157 15.0314 23.6162 15.0214 23.6164 15.0114C23.6164 15.0076 23.617 15.0038 23.617 14.9999V6.86203C23.617 6.85816 23.6164 6.85441 23.6164 6.85055C23.6162 6.84053 23.6157 6.83057 23.6149 6.82055C23.6143 6.81398 23.6135 6.80754 23.6127 6.80109C23.6115 6.7923 23.6103 6.78346 23.6087 6.77467C23.6072 6.76693 23.6055 6.75938 23.6037 6.75182C23.602 6.74461 23.6002 6.7374 23.5982 6.7302C23.5956 6.72117 23.5927 6.71238 23.5896 6.70365C23.5876 6.69791 23.5856 6.69217 23.5833 6.68643C23.5794 6.67658 23.5751 6.66703 23.5706 6.65754C23.5691 6.65438 23.5679 6.65109 23.5663 6.64799C23.5655 6.64629 23.5644 6.64471 23.5635 6.64301C23.5588 6.63381 23.5536 6.6249 23.5484 6.61605C23.5453 6.6109 23.5422 6.60557 23.539 6.60059C23.5342 6.59332 23.5291 6.58635 23.524 6.57932C23.5196 6.57328 23.5153 6.56713 23.5105 6.56139C23.5061 6.55594 23.5014 6.55078 23.4968 6.54557C23.491 6.539 23.4853 6.53232 23.4791 6.52611C23.4748 6.52172 23.4701 6.51762 23.4656 6.5134C23.4589 6.50707 23.4522 6.50068 23.4452 6.49482C23.44 6.49049 23.4346 6.48656 23.4292 6.48252C23.4226 6.47742 23.4159 6.47221 23.409 6.4674C23.4021 6.46266 23.3948 6.45838 23.3877 6.45398C23.382 6.45053 23.3764 6.44684 23.3706 6.44367C23.3619 6.43875 23.3527 6.43441 23.3435 6.43008C23.3389 6.42791 23.3345 6.42557 23.33 6.42357C23.3201 6.4193 23.3101 6.41561 23.3 6.41197C23.2956 6.41039 23.2913 6.40857 23.2869 6.40717C23.2774 6.40406 23.2676 6.40148 23.2578 6.39902C23.2523 6.39762 23.247 6.39604 23.2414 6.3948C23.233 6.39293 23.2245 6.39164 23.2159 6.39023C23.2086 6.389 23.2012 6.38777 23.1938 6.38684C23.1868 6.38602 23.1796 6.38555 23.1725 6.38502C23.1633 6.38437 23.1541 6.38373 23.1449 6.38361C23.1427 6.38361 23.1404 6.38332 23.1381 6.38332H6.86162C6.85963 6.38332 6.85764 6.38355 6.8557 6.38361C6.84568 6.38373 6.83578 6.38437 6.82582 6.38514C6.81943 6.38561 6.81299 6.38596 6.80666 6.38672C6.79857 6.38766 6.79055 6.38906 6.78252 6.39041C6.77455 6.39176 6.76664 6.39299 6.75879 6.39469C6.75275 6.39604 6.74678 6.39773 6.7408 6.39926C6.73148 6.40166 6.72217 6.40412 6.71309 6.40705C6.70834 6.40857 6.70377 6.41051 6.69908 6.41215C6.68918 6.41572 6.67934 6.4193 6.66979 6.42352C6.66521 6.42551 6.66076 6.42785 6.65625 6.43002C6.64705 6.43436 6.63785 6.43875 6.629 6.44367C6.62338 6.44678 6.61805 6.45029 6.61254 6.45369C6.60516 6.4582 6.59771 6.46254 6.59057 6.46746C6.58395 6.47203 6.57756 6.47707 6.57111 6.48199C6.56549 6.48627 6.55975 6.49043 6.5543 6.49494C6.54756 6.50062 6.54117 6.50678 6.53461 6.51281C6.5298 6.51727 6.52488 6.5216 6.52031 6.52629C6.51445 6.53227 6.50889 6.53865 6.50326 6.54498C6.4984 6.55049 6.49348 6.55582 6.48891 6.5615C6.48439 6.56713 6.48018 6.57305 6.4759 6.57885C6.47068 6.586 6.46541 6.59314 6.46049 6.60053C6.45732 6.60551 6.45428 6.61061 6.45123 6.6157C6.44584 6.62455 6.44068 6.63357 6.43594 6.64277C6.43506 6.64447 6.434 6.64605 6.43312 6.64775C6.43154 6.65086 6.43043 6.65414 6.42891 6.6573C6.42439 6.6668 6.42012 6.67641 6.41619 6.68619C6.41396 6.69193 6.41191 6.69762 6.40986 6.70342C6.40682 6.71215 6.40389 6.721 6.40131 6.72996C6.3992 6.73717 6.3975 6.74437 6.39574 6.75158C6.39393 6.7592 6.39223 6.76676 6.39082 6.77443C6.38918 6.78322 6.38789 6.79207 6.38678 6.80086C6.38596 6.8073 6.38514 6.81375 6.38455 6.82031C6.38367 6.83033 6.38326 6.84029 6.38303 6.85031C6.38297 6.85412 6.38244 6.85793 6.38244 6.8618V14.9997C6.38244 15.0036 6.38297 15.0073 6.38303 15.0112C6.38326 15.0212 6.38367 15.0312 6.38455 15.0412C6.38514 15.0478 6.38596 15.0542 6.38678 15.0606C6.38795 15.0694 6.38918 15.0783 6.39082 15.0871C6.39223 15.0948 6.39393 15.1024 6.39574 15.1099C6.39744 15.1171 6.39926 15.1243 6.40131 15.1315C6.40389 15.1406 6.40682 15.1494 6.40986 15.1581C6.41191 15.1638 6.41391 15.1696 6.41619 15.1753C6.42006 15.1852 6.42434 15.1947 6.42885 15.2041C6.43037 15.2073 6.43148 15.2106 6.43307 15.2137C6.43371 15.215 6.43459 15.2161 6.43529 15.2174C6.44479 15.2359 6.45527 15.2539 6.46699 15.2709C6.46904 15.2739 6.47127 15.2766 6.47338 15.2795C6.48299 15.2928 6.4933 15.3055 6.5042 15.3178C6.50824 15.3223 6.51217 15.3268 6.51633 15.3312C6.52939 15.3448 6.54299 15.3578 6.55764 15.3698C6.56039 15.372 6.56338 15.374 6.56613 15.3762C6.57896 15.3863 6.59238 15.3956 6.60621 15.4044C6.61078 15.4073 6.61535 15.4101 6.61998 15.4128C6.63551 15.4219 6.65139 15.4302 6.66791 15.4375C6.66926 15.4381 6.67049 15.4388 6.67178 15.4394C6.69006 15.4472 6.70887 15.4538 6.7282 15.4594C6.7323 15.4606 6.73646 15.4615 6.74057 15.4625C6.75551 15.4664 6.77074 15.4696 6.78621 15.472C6.79178 15.4729 6.79717 15.4739 6.80279 15.4746C6.8202 15.4767 6.83783 15.4781 6.85582 15.4782C6.85775 15.4783 6.85963 15.4787 6.86162 15.4787C6.86232 15.4787 6.86309 15.4785 6.86379 15.4785H23.1353C23.136 15.4785 23.1367 15.4787 23.1374 15.4787C23.1394 15.4787 23.1412 15.4782 23.1432 15.4782C23.1612 15.4781 23.1789 15.4767 23.1963 15.4746C23.2018 15.4739 23.2073 15.473 23.2128 15.4721C23.2283 15.4697 23.2436 15.4665 23.2585 15.4627C23.2626 15.4615 23.2668 15.4607 23.2708 15.4595C23.2901 15.4539 23.3091 15.4474 23.3273 15.4395C23.3285 15.439 23.3296 15.4383 23.3309 15.4378C23.3474 15.4305 23.3635 15.4221 23.379 15.413C23.3836 15.4103 23.3882 15.4075 23.3927 15.4046C23.4066 15.3959 23.42 15.3865 23.4329 15.3763C23.4357 15.3741 23.4386 15.3722 23.4413 15.37C23.4559 15.358 23.4696 15.345 23.4827 15.3313C23.4868 15.3271 23.4907 15.3226 23.4947 15.318C23.5056 15.3058 23.516 15.293 23.5256 15.2797C23.5277 15.2768 23.53 15.2742 23.532 15.2712C23.5437 15.2542 23.5542 15.2362 23.5637 15.2177C23.5643 15.2163 23.5652 15.2153 23.5659 15.214C23.5675 15.2109 23.5686 15.2076 23.5701 15.2044C23.5745 15.195 23.5789 15.1854 23.5828 15.1756C23.5856 15.1699 23.5876 15.1641 23.5896 15.1583ZM7.34045 7.63658L13.9296 10.931L7.34045 14.2253V7.63658ZM8.88961 7.34074H21.1103L15 10.3958L8.88961 7.34074ZM15 11.4662L21.1104 14.5212H8.88961L15 11.4662ZM16.0705 10.931L22.6596 7.63658V14.2254L16.0705 10.931Z" fill="var(--fill-0, white)"/>
</g>
<defs>
<clipPath id="clip0_0_5">
<rect width="30" height="30" fill="white"/>
</clipPath>
</defs>
</svg>
