<svg width="123" height="249" viewBox="0 0 123 249" fill="none" xmlns="http://www.w3.org/2000/svg">
<mask id="path-1-inside-1_37_525" fill="white">
<path d="M0 2.66382H118C119.105 2.66382 120 3.55925 120 4.66382V248.664H0V2.66382Z"/>
</mask>
<path d="M0 2.66382H118C119.105 2.66382 120 3.55925 120 4.66382V248.664H0V2.66382Z" fill="url(#paint0_linear_37_525)"/>
<path d="M0 1.66382H118C119.657 1.66382 121 3.00696 121 4.66382H119C119 4.11153 118.552 3.66382 118 3.66382H0V1.66382ZM0 3.66382M120 248.664H0H120M120 248.664M0 248.664V2.66382V248.664M118 1.66382C119.657 1.66382 121 3.00696 121 4.66382V248.664H119V4.66382C119 4.11153 118.552 3.66382 118 3.66382V1.66382Z" fill="url(#paint1_linear_37_525)" mask="url(#path-1-inside-1_37_525)"/>
<g filter="url(#filter0_f_37_525)" style="mix-blend-mode:overlay">
<path d="M68.5 3.5H119V87.2043" stroke="url(#paint2_radial_37_525)" stroke-width="3"/>
</g>
<g filter="url(#filter1_f_37_525)" style="mix-blend-mode:plus-lighter">
<path d="M68.5 3.5H119V87.2043" stroke="url(#paint3_radial_37_525)" stroke-width="2"/>
</g>
<defs>
<filter id="filter0_f_37_525" x="66.5" y="0" width="56" height="89.2043" filterUnits="userSpaceOnUse" color-interpolation-filters="sRGB">
<feFlood flood-opacity="0" result="BackgroundImageFix"/>
<feBlend mode="normal" in="SourceGraphic" in2="BackgroundImageFix" result="shape"/>
<feGaussianBlur stdDeviation="1" result="effect1_foregroundBlur_37_525"/>
</filter>
<filter id="filter1_f_37_525" x="66.5" y="0.5" width="55.5" height="88.7043" filterUnits="userSpaceOnUse" color-interpolation-filters="sRGB">
<feFlood flood-opacity="0" result="BackgroundImageFix"/>
<feBlend mode="normal" in="SourceGraphic" in2="BackgroundImageFix" result="shape"/>
<feGaussianBlur stdDeviation="1" result="effect1_foregroundBlur_37_525"/>
</filter>
<linearGradient id="paint0_linear_37_525" x1="516.545" y1="-280.92" x2="95.9759" y2="131.625" gradientUnits="userSpaceOnUse">
<stop offset="0.213922" stop-color="#2424A6"/>
<stop offset="1" stop-color="#030313"/>
</linearGradient>
<linearGradient id="paint1_linear_37_525" x1="141" y1="4.33729" x2="12.0662" y2="111.782" gradientUnits="userSpaceOnUse">
<stop offset="0.253984" stop-color="white"/>
<stop offset="0.718457" stop-color="#00000C" stop-opacity="0"/>
</linearGradient>
<radialGradient id="paint2_radial_37_525" cx="0" cy="0" r="1" gradientTransform="matrix(-28.5 64.7639 -39.073 -25.6746 119 0.445099)" gradientUnits="userSpaceOnUse">
<stop stop-color="white"/>
<stop offset="1" stop-color="white" stop-opacity="0"/>
</radialGradient>
<radialGradient id="paint3_radial_37_525" cx="0" cy="0" r="1" gradientTransform="matrix(-28.5 64.7639 -39.073 -25.6746 119 0.445099)" gradientUnits="userSpaceOnUse">
<stop stop-color="white"/>
<stop offset="1" stop-color="white" stop-opacity="0"/>
</radialGradient>
</defs>
</svg>
