<svg width="113" height="504" viewBox="0 0 113 504" fill="none" xmlns="http://www.w3.org/2000/svg">
<mask id="path-1-inside-1_37_517" fill="white">
<path d="M0 2.23096H108C109.105 2.23096 110 3.12639 110 4.23096V503.231H0V2.23096Z"/>
</mask>
<path d="M0 2.23096H108C109.105 2.23096 110 3.12639 110 4.23096V503.231H0V2.23096Z" fill="url(#paint0_linear_37_517)"/>
<path d="M0 1.23096H108C109.657 1.23096 111 2.5741 111 4.23096H109C109 3.67867 108.552 3.23096 108 3.23096H0V1.23096ZM0 3.23096M110 503.231H0H110M110 503.231M0 503.231V2.23096V503.231M108 1.23096C109.657 1.23096 111 2.5741 111 4.23096V503.231H109V4.23096C109 3.67867 108.552 3.23096 108 3.23096V1.23096Z" fill="url(#paint1_linear_37_517)" mask="url(#path-1-inside-1_37_517)"/>
<g filter="url(#filter0_f_37_517)" style="mix-blend-mode:overlay">
<path d="M58.5 3.5H109V90.4402" stroke="url(#paint2_radial_37_517)" stroke-width="3"/>
</g>
<g filter="url(#filter1_f_37_517)" style="mix-blend-mode:plus-lighter">
<path d="M58.5 3.5H109V90.4402" stroke="url(#paint3_radial_37_517)" stroke-width="2"/>
</g>
<defs>
<filter id="filter0_f_37_517" x="56.5" y="0" width="56" height="92.4402" filterUnits="userSpaceOnUse" color-interpolation-filters="sRGB">
<feFlood flood-opacity="0" result="BackgroundImageFix"/>
<feBlend mode="normal" in="SourceGraphic" in2="BackgroundImageFix" result="shape"/>
<feGaussianBlur stdDeviation="1" result="effect1_foregroundBlur_37_517"/>
</filter>
<filter id="filter1_f_37_517" x="56.5" y="0.5" width="55.5" height="91.9402" filterUnits="userSpaceOnUse" color-interpolation-filters="sRGB">
<feFlood flood-opacity="0" result="BackgroundImageFix"/>
<feBlend mode="normal" in="SourceGraphic" in2="BackgroundImageFix" result="shape"/>
<feGaussianBlur stdDeviation="1" result="effect1_foregroundBlur_37_517"/>
</filter>
<linearGradient id="paint0_linear_37_517" x1="473.5" y1="-575.311" x2="-159.567" y2="-295.804" gradientUnits="userSpaceOnUse">
<stop offset="0.213922" stop-color="#2424A6"/>
<stop offset="1" stop-color="#030313"/>
</linearGradient>
<linearGradient id="paint1_linear_37_517" x1="129.25" y1="5.63913" x2="-46.3153" y2="71.4907" gradientUnits="userSpaceOnUse">
<stop offset="0.253984" stop-color="white"/>
<stop offset="0.718457" stop-color="#00000C" stop-opacity="0"/>
</linearGradient>
<radialGradient id="paint2_radial_37_517" cx="0" cy="0" r="1" gradientTransform="matrix(-28.5 67.2676 -39.073 -26.6671 109 0.327001)" gradientUnits="userSpaceOnUse">
<stop stop-color="white"/>
<stop offset="1" stop-color="white" stop-opacity="0"/>
</radialGradient>
<radialGradient id="paint3_radial_37_517" cx="0" cy="0" r="1" gradientTransform="matrix(-28.5 67.2676 -39.073 -26.6671 109 0.327001)" gradientUnits="userSpaceOnUse">
<stop stop-color="white"/>
<stop offset="1" stop-color="white" stop-opacity="0"/>
</radialGradient>
</defs>
</svg>
