<svg width="36" height="36" viewBox="0 0 36 36" fill="none" xmlns="http://www.w3.org/2000/svg">
<g filter="url(#filter0_dd_100_7125)">
<path d="M1.55859 16.7793C1.55859 11.1788 1.55859 8.37851 2.64853 6.23939C3.60726 4.35777 5.13707 2.82797 7.01869 1.86923C9.15781 0.779297 11.9581 0.779297 17.5586 0.779297V0.779297C23.1591 0.779297 25.9594 0.779297 28.0985 1.86923C29.9801 2.82797 31.5099 4.35777 32.4687 6.23939C33.5586 8.37851 33.5586 11.1788 33.5586 16.7793V16.7793C33.5586 22.3798 33.5586 25.1801 32.4687 27.3192C31.5099 29.2008 29.9801 30.7306 28.0985 31.6894C25.9594 32.7793 23.1591 32.7793 17.5586 32.7793V32.7793C11.9581 32.7793 9.15781 32.7793 7.01869 31.6894C5.13707 30.7306 3.60726 29.2008 2.64853 27.3192C1.55859 25.1801 1.55859 22.3798 1.55859 16.7793V16.7793Z" fill="#2424A6" shape-rendering="crispEdges"/>
<path d="M1.55859 16.7793C1.55859 11.1788 1.55859 8.37851 2.64853 6.23939C3.60726 4.35777 5.13707 2.82797 7.01869 1.86923C9.15781 0.779297 11.9581 0.779297 17.5586 0.779297V0.779297C23.1591 0.779297 25.9594 0.779297 28.0985 1.86923C29.9801 2.82797 31.5099 4.35777 32.4687 6.23939C33.5586 8.37851 33.5586 11.1788 33.5586 16.7793V16.7793C33.5586 22.3798 33.5586 25.1801 32.4687 27.3192C31.5099 29.2008 29.9801 30.7306 28.0985 31.6894C25.9594 32.7793 23.1591 32.7793 17.5586 32.7793V32.7793C11.9581 32.7793 9.15781 32.7793 7.01869 31.6894C5.13707 30.7306 3.60726 29.2008 2.64853 27.3192C1.55859 25.1801 1.55859 22.3798 1.55859 16.7793V16.7793Z" fill="url(#paint0_linear_100_7125)" fill-opacity="0.12" shape-rendering="crispEdges"/>
<path d="M17.5586 1.22949C20.3662 1.22949 22.4449 1.22987 24.0898 1.36426C25.7295 1.49823 26.899 1.76325 27.8945 2.27051C29.6912 3.18604 31.1518 4.64672 32.0674 6.44336C32.5746 7.43891 32.8397 8.60835 32.9736 10.248C33.108 11.893 33.1084 13.9716 33.1084 16.7793C33.1084 19.5869 33.108 21.6656 32.9736 23.3105C32.8397 24.9502 32.5746 26.1197 32.0674 27.1152C31.1518 28.9119 29.6912 30.3725 27.8945 31.2881C26.899 31.7953 25.7295 32.0604 24.0898 32.1943C22.4449 32.3287 20.3662 32.3291 17.5586 32.3291C14.7509 32.3291 12.6723 32.3287 11.0273 32.1943C9.38765 32.0604 8.2182 31.7953 7.22266 31.2881C5.42602 30.3725 3.96534 28.9119 3.0498 27.1152C2.54255 26.1197 2.27752 24.9502 2.14355 23.3105C2.00916 21.6656 2.00879 19.5869 2.00879 16.7793C2.00879 13.9716 2.00916 11.893 2.14355 10.248C2.27752 8.60835 2.54255 7.43891 3.0498 6.44336C3.96534 4.64672 5.42602 3.18604 7.22266 2.27051C8.2182 1.76325 9.38765 1.49823 11.0273 1.36426C12.6723 1.22987 14.7509 1.22949 17.5586 1.22949Z" stroke="url(#paint1_linear_100_7125)" stroke-opacity="0.12" stroke-width="0.9" shape-rendering="crispEdges"/>
<g filter="url(#filter1_ii_100_7125)">
<path d="M17.5588 21.552L21.8338 24.1809C21.9447 24.2482 22.0731 24.2812 22.2027 24.2756C22.3324 24.27 22.4574 24.226 22.5621 24.1494C22.6668 24.0727 22.7464 23.9667 22.7909 23.8448C22.8353 23.7229 22.8427 23.5906 22.8119 23.4645L21.6494 18.559L25.4541 15.2778C25.5511 15.1926 25.621 15.0809 25.6553 14.9564C25.6895 14.8319 25.6866 14.7002 25.6468 14.5774C25.607 14.4546 25.5321 14.3461 25.4313 14.2654C25.3306 14.1846 25.2084 14.1352 25.0799 14.1231L20.0869 13.7168L18.1635 9.06059C18.1144 8.94047 18.0307 8.83767 17.923 8.7653C17.8153 8.69294 17.6885 8.6543 17.5588 8.6543C17.429 8.6543 17.3022 8.69294 17.1945 8.7653C17.0868 8.83767 17.0031 8.94047 16.9541 9.06059L15.0307 13.7168L10.0377 14.1231C9.9083 14.1345 9.78511 14.1837 9.68353 14.2647C9.58196 14.3456 9.50649 14.4547 9.46656 14.5784C9.42664 14.702 9.42402 14.8346 9.45904 14.9597C9.49407 15.0848 9.56517 15.1968 9.66348 15.2817L13.4682 18.5629L12.3057 23.4645C12.2749 23.5906 12.2823 23.7229 12.3267 23.8448C12.3712 23.9667 12.4508 24.0727 12.5555 24.1494C12.6602 24.226 12.7852 24.27 12.9148 24.2756C13.0445 24.2812 13.1729 24.2482 13.2838 24.1809L17.5588 21.552Z" fill="url(#paint2_linear_100_7125)"/>
</g>
</g>
<defs>
<filter id="filter0_dd_100_7125" x="-0.000220299" y="-0.000110149" width="35.1176" height="35.1176" filterUnits="userSpaceOnUse" color-interpolation-filters="sRGB">
<feFlood flood-opacity="0" result="BackgroundImageFix"/>
<feColorMatrix in="SourceAlpha" type="matrix" values="0 0 0 0 0 0 0 0 0 0 0 0 0 0 0 0 0 0 127 0" result="hardAlpha"/>
<feMorphology radius="0.779407" operator="dilate" in="SourceAlpha" result="effect1_dropShadow_100_7125"/>
<feOffset/>
<feComposite in2="hardAlpha" operator="out"/>
<feColorMatrix type="matrix" values="0 0 0 0 0.310476 0 0 0 0 0.28 0 0 0 0 0.92 0 0 0 1 0"/>
<feBlend mode="normal" in2="BackgroundImageFix" result="effect1_dropShadow_100_7125"/>
<feColorMatrix in="SourceAlpha" type="matrix" values="0 0 0 0 0 0 0 0 0 0 0 0 0 0 0 0 0 0 127 0" result="hardAlpha"/>
<feOffset dy="0.779407"/>
<feGaussianBlur stdDeviation="0.779407"/>
<feComposite in2="hardAlpha" operator="out"/>
<feColorMatrix type="matrix" values="0 0 0 0 0.101823 0 0 0 0 0.0752604 0 0 0 0 0.633073 0 0 0 0.5 0"/>
<feBlend mode="normal" in2="effect1_dropShadow_100_7125" result="effect2_dropShadow_100_7125"/>
<feBlend mode="normal" in="SourceGraphic" in2="effect2_dropShadow_100_7125" result="shape"/>
</filter>
<filter id="filter1_ii_100_7125" x="8.50124" y="6.78763" width="17.1775" height="17.4887" filterUnits="userSpaceOnUse" color-interpolation-filters="sRGB">
<feFlood flood-opacity="0" result="BackgroundImageFix"/>
<feBlend mode="normal" in="SourceGraphic" in2="BackgroundImageFix" result="shape"/>
<feColorMatrix in="SourceAlpha" type="matrix" values="0 0 0 0 0 0 0 0 0 0 0 0 0 0 0 0 0 0 127 0" result="hardAlpha"/>
<feOffset dy="-0.186667"/>
<feGaussianBlur stdDeviation="0.326667"/>
<feComposite in2="hardAlpha" operator="arithmetic" k2="-1" k3="1"/>
<feColorMatrix type="matrix" values="0 0 0 0 1 0 0 0 0 1 0 0 0 0 1 0 0 0 0.36 0"/>
<feBlend mode="plus-lighter" in2="shape" result="effect1_innerShadow_100_7125"/>
<feColorMatrix in="SourceAlpha" type="matrix" values="0 0 0 0 0 0 0 0 0 0 0 0 0 0 0 0 0 0 127 0" result="hardAlpha"/>
<feOffset dx="-0.933333" dy="-2.42667"/>
<feGaussianBlur stdDeviation="0.933333"/>
<feComposite in2="hardAlpha" operator="arithmetic" k2="-1" k3="1"/>
<feColorMatrix type="matrix" values="0 0 0 0 0 0 0 0 0 0 0 0 0 0 0 0 0 0 0.25 0"/>
<feBlend mode="overlay" in2="effect1_innerShadow_100_7125" result="effect2_innerShadow_100_7125"/>
</filter>
<linearGradient id="paint0_linear_100_7125" x1="17.5586" y1="0.779297" x2="17.5586" y2="32.7793" gradientUnits="userSpaceOnUse">
<stop stop-color="white"/>
<stop offset="1" stop-color="white" stop-opacity="0"/>
</linearGradient>
<linearGradient id="paint1_linear_100_7125" x1="17.5586" y1="0.779297" x2="17.5586" y2="32.7793" gradientUnits="userSpaceOnUse">
<stop stop-color="white"/>
<stop offset="1" stop-color="white" stop-opacity="0"/>
</linearGradient>
<linearGradient id="paint2_linear_100_7125" x1="17.5568" y1="1.36409" x2="17.5568" y2="33.6493" gradientUnits="userSpaceOnUse">
<stop stop-color="white"/>
<stop offset="1" stop-color="white" stop-opacity="0.2"/>
</linearGradient>
</defs>
</svg>
