<svg width="54" height="54" viewBox="0 0 54 54" fill="none" xmlns="http://www.w3.org/2000/svg">
<path d="M15.0415 40.1119C12.2763 40.1119 9.91365 39.1248 7.95366 37.1505C5.99367 35.1763 5.01367 32.7633 5.01367 29.9117C5.01367 27.4674 5.72778 25.2895 7.15599 23.3779C8.5842 21.4663 10.453 20.2442 12.7625 19.7115C13.5222 16.8285 15.0415 14.4938 17.3206 12.7076C19.5996 10.9214 22.1826 10.0283 25.0694 10.0283C28.6247 10.0283 31.6407 11.3053 34.1172 13.8593C36.5938 16.4132 37.8321 19.5234 37.8321 23.1899C39.9288 23.4406 41.6685 24.3729 43.0511 25.9867C44.4338 27.6006 45.1251 29.4886 45.1251 31.6509C45.1251 34.0012 44.3274 35.9989 42.7321 37.6441C41.1367 39.2893 39.1995 40.1119 36.9205 40.1119H15.0415ZM15.0415 36.3514H36.9205C38.1968 36.3514 39.2755 35.8971 40.1567 34.9883C41.038 34.0795 41.4786 32.967 41.4786 31.6509C41.4786 30.3347 41.038 29.2223 40.1567 28.3135C39.2755 27.4047 38.1968 26.9503 36.9205 26.9503H34.1856V23.1899C34.1856 20.5889 33.2968 18.3718 31.5191 16.5386C29.7415 14.7054 27.5915 13.7888 25.0694 13.7888C22.5472 13.7888 20.3973 14.7054 18.6196 16.5386C16.842 18.3718 15.9532 20.5889 15.9532 23.1899H15.0415C13.2791 23.1899 11.7749 23.8323 10.529 25.1171C9.28311 26.4019 8.66016 27.9531 8.66016 29.7707C8.66016 31.5882 9.28311 33.1394 10.529 34.4242C11.7749 35.709 13.2791 36.3514 15.0415 36.3514Z" fill="#BBBBE3"/>
</svg>
