<svg width="54" height="54" viewBox="0 0 54 54" fill="none" xmlns="http://www.w3.org/2000/svg">
<path d="M26.7404 43.4545C22.067 43.4545 18.1131 42.7349 14.8788 41.2957C11.6445 39.8565 10.0273 38.1001 10.0273 36.0265V17.4564C10.0273 15.4137 11.66 13.665 14.9252 12.2103C18.1905 10.7556 22.1289 10.0283 26.7404 10.0283C31.352 10.0283 35.2904 10.7556 38.5557 12.2103C41.8209 13.665 43.4535 15.4137 43.4535 17.4564V36.0265C43.4535 38.1001 41.8364 39.8565 38.6021 41.2957C35.3678 42.7349 31.4139 43.4545 26.7404 43.4545ZM26.7404 21.2168C29.495 21.2168 32.265 20.8222 35.0506 20.033C37.8361 19.2437 39.3991 18.4003 39.7395 17.5028C39.3991 16.6052 37.8438 15.7541 35.0738 14.9494C32.3037 14.1447 29.526 13.7423 26.7404 13.7423C23.924 13.7423 21.1617 14.137 18.4535 14.9262C15.7454 15.7154 14.1747 16.5743 13.7414 17.5028C14.1747 18.4313 15.7454 19.2824 18.4535 20.0562C21.1617 20.8299 23.924 21.2168 26.7404 21.2168ZM26.7404 30.4554C28.0403 30.4554 29.2938 30.3935 30.5009 30.2697C31.7079 30.1459 32.8608 29.968 33.9596 29.7358C35.0583 29.5037 36.0951 29.2174 37.0701 28.877C38.045 28.5365 38.9348 28.1496 39.7395 27.7163V22.1453C38.9348 22.5786 38.045 22.9655 37.0701 23.3059C36.0951 23.6464 35.0583 23.9327 33.9596 24.1648C32.8608 24.3969 31.7079 24.5749 30.5009 24.6987C29.2938 24.8225 28.0403 24.8844 26.7404 24.8844C25.4405 24.8844 24.1716 24.8225 22.9336 24.6987C21.6956 24.5749 20.5272 24.3969 19.4285 24.1648C18.3297 23.9327 17.3006 23.6464 16.3412 23.3059C15.3817 22.9655 14.5151 22.5786 13.7414 22.1453V27.7163C14.5151 28.1496 15.3817 28.5365 16.3412 28.877C17.3006 29.2174 18.3297 29.5037 19.4285 29.7358C20.5272 29.968 21.6956 30.1459 22.9336 30.2697C24.1716 30.3935 25.4405 30.4554 26.7404 30.4554ZM26.7404 39.7405C28.1641 39.7405 29.6111 39.6322 31.0812 39.4155C32.5513 39.1989 33.9054 38.9126 35.1434 38.5566C36.3814 38.2007 37.4182 37.7984 38.2539 37.3496C39.0896 36.9008 39.5848 36.4443 39.7395 35.98V31.4304C38.9348 31.8637 38.045 32.2505 37.0701 32.591C36.0951 32.9314 35.0583 33.2177 33.9596 33.4499C32.8608 33.682 31.7079 33.86 30.5009 33.9838C29.2938 34.1076 28.0403 34.1695 26.7404 34.1695C25.4405 34.1695 24.1716 34.1076 22.9336 33.9838C21.6956 33.86 20.5272 33.682 19.4285 33.4499C18.3297 33.2177 17.3006 32.9314 16.3412 32.591C15.3817 32.2505 14.5151 31.8637 13.7414 31.4304V36.0265C13.8961 36.4907 14.3836 36.9395 15.2038 37.3728C16.0239 37.8061 17.053 38.2007 18.291 38.5566C19.529 38.9126 20.8909 39.1989 22.3765 39.4155C23.8621 39.6322 25.3167 39.7405 26.7404 39.7405Z" fill="#BBBBE3"/>
</svg>
