<svg width="54" height="54" viewBox="0 0 54 54" fill="none" xmlns="http://www.w3.org/2000/svg">
<g clip-path="url(#clip0_121_1395)">
<mask id="mask0_121_1395" style="mask-type:luminance" maskUnits="userSpaceOnUse" x="5" y="5" width="44" height="44">
<path d="M5.01367 5.01367H48.4677V48.4677H5.01367V5.01367Z" fill="white"/>
</mask>
<g mask="url(#mask0_121_1395)">
<path fill-rule="evenodd" clip-rule="evenodd" d="M17.3031 21.0907C15.487 19.8685 14.293 17.7941 14.293 15.441C14.293 11.8499 17.074 8.90839 20.5999 8.65287V8.63477H32.6704V8.63997C36.3033 8.78255 39.2048 11.773 39.2048 15.441C39.2048 17.7941 38.0105 19.8683 36.1949 21.0907C38.0105 22.3128 39.2048 24.3873 39.2048 26.7406C39.2048 30.4996 36.1576 33.5468 32.3988 33.5468C30.741 33.5492 29.1397 32.9441 27.8977 31.846V33.7643C27.9027 33.8313 27.9052 33.899 27.9052 33.9673V40.3476C27.9052 42.8317 25.8907 44.8465 23.4063 44.8465H21.0992C17.3402 44.8465 14.293 41.7992 14.293 38.0402C14.293 35.6872 15.4873 33.6129 17.3031 32.3905C15.487 31.1682 14.293 29.0939 14.293 26.7406C14.293 24.3875 15.4873 22.3131 17.3031 21.0907ZM17.026 15.441C17.026 13.1913 18.8495 11.3678 21.0992 11.3678H25.1723V19.5141H21.0992C18.8495 19.5141 17.026 17.6904 17.026 15.441ZM32.3988 19.5141H28.3257V11.3678H32.3988C34.6482 11.3678 36.472 13.1913 36.472 15.441C36.472 17.6904 34.6482 19.5141 32.3988 19.5141ZM21.0992 30.8138C18.8495 30.8138 17.026 28.99 17.026 26.7406C17.026 24.4912 18.8495 22.6675 21.0992 22.6675H25.1723V30.8138H21.0992ZM21.0992 42.1136C18.8495 42.1136 17.026 40.2897 17.026 38.0402C17.026 35.7908 18.8495 33.9673 21.0992 33.9673H25.1723V40.3476C25.1722 40.8159 24.9861 41.2651 24.6549 41.5962C24.3238 41.9274 23.8747 42.1135 23.4063 42.1136H21.0992ZM32.3988 30.8138C34.6482 30.8138 36.472 28.99 36.472 26.7406C36.472 24.491 34.6482 22.6675 32.3988 22.6675C30.1492 22.6675 28.3257 24.4912 28.3257 26.7406C28.3257 28.99 30.1492 30.8138 32.3988 30.8138Z" fill="#BBBBE3"/>
</g>
</g>
<defs>
<clipPath id="clip0_121_1395">
<rect width="43.454" height="43.454" fill="white" transform="translate(5.01367 5.01367)"/>
</clipPath>
</defs>
</svg>
