<svg preserveAspectRatio="none" width="100%" height="100%" overflow="visible" style="display: block;" viewBox="0 0 1440 400" fill="none" xmlns="http://www.w3.org/2000/svg">
<g id="Frame 1618873043" clip-path="url(#clip0_0_14)">
<g id="Perspective Grid">
<path id="Vector" d="M452.072 0L-22463.9 400" stroke="var(--stroke-0, white)" stroke-opacity="0.1"/>
<path id="Vector_2" d="M464.572 0L-3012.46 400" stroke="var(--stroke-0, white)" stroke-opacity="0.1"/>
<path id="Vector_3" d="M477.072 0L-1384.8 400" stroke="var(--stroke-0, white)" stroke-opacity="0.1"/>
<path id="Vector_4" d="M489.572 0L-764.738 400" stroke="var(--stroke-0, white)" stroke-opacity="0.1"/>
<path id="Vector_5" d="M502.072 0L-428.953 400" stroke="var(--stroke-0, white)" stroke-opacity="0.1"/>
<path id="Vector_6" d="M514.572 0L-212.649 400" stroke="var(--stroke-0, white)" stroke-opacity="0.1"/>
<path id="Vector_7" d="M527.072 0L-57.6601 400" stroke="var(--stroke-0, white)" stroke-opacity="0.1"/>
<path id="Vector_8" d="M539.572 0L61.8134 400" stroke="var(--stroke-0, white)" stroke-opacity="0.1"/>
<path id="Vector_9" d="M552.072 0L158.993 400" stroke="var(--stroke-0, white)" stroke-opacity="0.1"/>
<path id="Vector_10" d="M564.572 0L241.38 400" stroke="var(--stroke-0, white)" stroke-opacity="0.1"/>
<path id="Vector_11" d="M577.072 0L313.571 400" stroke="var(--stroke-0, white)" stroke-opacity="0.1"/>
<path id="Vector_12" d="M589.572 0L378.565 400" stroke="var(--stroke-0, white)" stroke-opacity="0.1"/>
<path id="Vector_13" d="M602.072 0L438.428 400" stroke="var(--stroke-0, white)" stroke-opacity="0.1"/>
<path id="Vector_14" d="M614.572 0L494.662 400" stroke="var(--stroke-0, white)" stroke-opacity="0.1"/>
<path id="Vector_15" d="M627.072 0L548.414 400" stroke="var(--stroke-0, white)" stroke-opacity="0.1"/>
<path id="Vector_16" d="M639.572 0L600.616 400" stroke="var(--stroke-0, white)" stroke-opacity="0.1"/>
<path id="Vector_17" d="M652.072 0V400" stroke="var(--stroke-0, white)" stroke-opacity="0.1"/>
<path id="Vector_18" d="M664.572 0L703.528 400" stroke="var(--stroke-0, white)" stroke-opacity="0.1"/>
<path id="Vector_19" d="M677.072 0L755.73 400" stroke="var(--stroke-0, white)" stroke-opacity="0.1"/>
<path id="Vector_20" d="M689.572 0L809.483 400" stroke="var(--stroke-0, white)" stroke-opacity="0.1"/>
<path id="Vector_21" d="M702.072 0L865.717 400" stroke="var(--stroke-0, white)" stroke-opacity="0.1"/>
<path id="Vector_22" d="M714.572 0L925.58 400" stroke="var(--stroke-0, white)" stroke-opacity="0.1"/>
<path id="Vector_23" d="M727.072 0L990.573 400" stroke="var(--stroke-0, white)" stroke-opacity="0.1"/>
<path id="Vector_24" d="M739.572 0L1062.76 400" stroke="var(--stroke-0, white)" stroke-opacity="0.1"/>
<path id="Vector_25" d="M752.072 0L1145.15 400" stroke="var(--stroke-0, white)" stroke-opacity="0.1"/>
<path id="Vector_26" d="M764.572 0L1242.33 400" stroke="var(--stroke-0, white)" stroke-opacity="0.1"/>
<path id="Vector_27" d="M777.072 0L1361.8 400" stroke="var(--stroke-0, white)" stroke-opacity="0.1"/>
<path id="Vector_28" d="M789.572 0L1516.79 400" stroke="var(--stroke-0, white)" stroke-opacity="0.1"/>
<path id="Vector_29" d="M802.072 0L1733.1 400" stroke="var(--stroke-0, white)" stroke-opacity="0.1"/>
<path id="Vector_30" d="M814.572 0L2068.88 400" stroke="var(--stroke-0, white)" stroke-opacity="0.1"/>
<path id="Vector_31" d="M827.072 0L2688.94 400" stroke="var(--stroke-0, white)" stroke-opacity="0.1"/>
<path id="Vector_32" d="M839.572 0L4316.6 400" stroke="var(--stroke-0, white)" stroke-opacity="0.1"/>
<path id="Vector_33" d="M852.072 0L23768.1 400" stroke="var(--stroke-0, white)" stroke-opacity="0.1"/>
<path id="Vector_34" d="M452.072 0H852.072" stroke="var(--stroke-0, white)" stroke-opacity="0.1"/>
<path id="Vector_35" d="M452.072 0H852.072" stroke="var(--stroke-0, white)" stroke-opacity="0.1"/>
<path id="Vector_36" d="M452.072 0H852.072" stroke="var(--stroke-0, white)" stroke-opacity="0.1"/>
<path id="Vector_37" d="M452.072 0H852.072" stroke="var(--stroke-0, white)" stroke-opacity="0.1"/>
<path id="Vector_38" d="M452.072 0H852.072" stroke="var(--stroke-0, white)" stroke-opacity="0.1"/>
<path id="Vector_39" d="M452.072 0H852.072" stroke="var(--stroke-0, white)" stroke-opacity="0.1"/>
<path id="Vector_40" d="M452.072 3.8147e-06H852.073" stroke="var(--stroke-0, white)" stroke-opacity="0.1"/>
<path id="Vector_41" d="M452.072 1.52588e-05H852.074" stroke="var(--stroke-0, white)" stroke-opacity="0.1"/>
<path id="Vector_42" d="M452.07 4.95911e-05H852.076" stroke="var(--stroke-0, white)" stroke-opacity="0.1"/>
<path id="Vector_43" d="M452.062 0.000156403H852.08" stroke="var(--stroke-0, white)" stroke-opacity="0.1"/>
<path id="Vector_44" d="M452.047 0.00043869H852.097" stroke="var(--stroke-0, white)" stroke-opacity="0.1"/>
<path id="Vector_45" d="M452.008 0.00112534H852.137" stroke="var(--stroke-0, white)" stroke-opacity="0.1"/>
<path id="Vector_46" d="M451.92 0.00266647H852.225" stroke="var(--stroke-0, white)" stroke-opacity="0.1"/>
<path id="Vector_47" d="M451.734 0.00588608H852.409" stroke="var(--stroke-0, white)" stroke-opacity="0.1"/>
<path id="Vector_48" d="M451.369 0.0122566H852.773" stroke="var(--stroke-0, white)" stroke-opacity="0.1"/>
<path id="Vector_49" d="M450.682 0.0242653H853.462" stroke="var(--stroke-0, white)" stroke-opacity="0.1"/>
<path id="Vector_50" d="M449.439 0.0459671H854.706" stroke="var(--stroke-0, white)" stroke-opacity="0.1"/>
<path id="Vector_51" d="M447.273 0.0837746H856.872" stroke="var(--stroke-0, white)" stroke-opacity="0.1"/>
<path id="Vector_52" d="M443.621 0.147526H860.524" stroke="var(--stroke-0, white)" stroke-opacity="0.1"/>
<path id="Vector_53" d="M437.637 0.251957H866.506" stroke="var(--stroke-0, white)" stroke-opacity="0.1"/>
<path id="Vector_54" d="M428.088 0.418663H876.058" stroke="var(--stroke-0, white)" stroke-opacity="0.1"/>
<path id="Vector_55" d="M413.193 0.678638H890.951" stroke="var(--stroke-0, white)" stroke-opacity="0.1"/>
<path id="Vector_56" d="M390.451 1.0756H913.693" stroke="var(--stroke-0, white)" stroke-opacity="0.1"/>
<path id="Vector_57" d="M356.385 1.67021H947.758" stroke="var(--stroke-0, white)" stroke-opacity="0.1"/>
<path id="Vector_58" d="M306.246 2.54541H997.899" stroke="var(--stroke-0, white)" stroke-opacity="0.1"/>
<path id="Vector_59" d="M233.623 3.81305H1070.52" stroke="var(--stroke-0, white)" stroke-opacity="0.1"/>
<path id="Vector_60" d="M129.98 5.62215H1174.17" stroke="var(--stroke-0, white)" stroke-opacity="0.1"/>
<path id="Vector_61" d="M-15.9277 8.16897H1320.07" stroke="var(--stroke-0, white)" stroke-opacity="0.1"/>
<path id="Vector_62" d="M-218.752 11.7093H1522.9" stroke="var(--stroke-0, white)" stroke-opacity="0.1"/>
<path id="Vector_63" d="M-497.406 16.5732H1801.55" stroke="var(--stroke-0, white)" stroke-opacity="0.1"/>
<path id="Vector_64" d="M-876.072 23.1828H2180.21" stroke="var(--stroke-0, white)" stroke-opacity="0.1"/>
<path id="Vector_65" d="M-1385.42 32.0735H2689.56" stroke="var(--stroke-0, white)" stroke-opacity="0.1"/>
<path id="Vector_66" d="M-2064.04 43.9188H3368.18" stroke="var(--stroke-0, white)" stroke-opacity="0.1"/>
<path id="Vector_67" d="M-2960.11 59.5599H4264.26" stroke="var(--stroke-0, white)" stroke-opacity="0.1"/>
<path id="Vector_68" d="M-4133.42 80.0401H5437.56" stroke="var(--stroke-0, white)" stroke-opacity="0.1"/>
<path id="Vector_69" d="M-5657.61 106.645H6961.75" stroke="var(--stroke-0, white)" stroke-opacity="0.1"/>
<path id="Vector_70" d="M-7622.87 140.949H8927.01" stroke="var(--stroke-0, white)" stroke-opacity="0.1"/>
<path id="Vector_71" d="M-10139 184.869H11443.2" stroke="var(--stroke-0, white)" stroke-opacity="0.1"/>
<path id="Vector_72" d="M-13339.1 240.726H14643.3" stroke="var(--stroke-0, white)" stroke-opacity="0.1"/>
<path id="Vector_73" d="M-17383.4 311.319H18687.5" stroke="var(--stroke-0, white)" stroke-opacity="0.1"/>
<path id="Vector_74" d="M-22463.9 400H23768.1" stroke="var(--stroke-0, white)" stroke-opacity="0.1"/>
</g>
<g id="Ellipse 1840" filter="url(#filter0_f_0_14)">
<ellipse cx="724" cy="392" rx="464" ry="61" fill="var(--fill-0, #030313)"/>
</g>
</g>
<defs>
<filter id="filter0_f_0_14" x="213" y="284" width="1022" height="216" filterUnits="userSpaceOnUse" color-interpolation-filters="sRGB">
<feFlood flood-opacity="0" result="BackgroundImageFix"/>
<feBlend mode="normal" in="SourceGraphic" in2="BackgroundImageFix" result="shape"/>
<feGaussianBlur stdDeviation="23.5" result="effect1_foregroundBlur_0_14"/>
</filter>
<clipPath id="clip0_0_14">
<rect width="1440" height="400" fill="white"/>
</clipPath>
</defs>
</svg>
