<svg preserveAspectRatio="none" width="100%" height="100%" overflow="visible" style="display: block;" viewBox="0 0 780 780.005" fill="none" xmlns="http://www.w3.org/2000/svg">
<g id="Lines Mask">
<mask id="mask0_0_39" style="mask-type:alpha" maskUnits="userSpaceOnUse" x="0" y="0" width="780" height="781">
<g id="Group">
<g id="Group_2">
<g id="Group_3">
<path id="Vector" d="M314.001 292.959C316.368 292.959 318.286 291.044 318.286 288.682C318.286 286.32 316.368 284.406 314.001 284.406C311.635 284.406 309.717 286.32 309.717 288.682C309.717 291.044 311.635 292.959 314.001 292.959Z" fill="var(--fill-0, #D9D9D9)" stroke="var(--stroke-0, #84EC21)" stroke-width="1.53451" stroke-miterlimit="10"/>
<path id="Vector_2" d="M313.994 284.391V242.861V138.746L267.164 91.9097V0" stroke="var(--stroke-0, #84EC21)" stroke-width="1.53451" stroke-miterlimit="10"/>
</g>
<g id="Group_4">
<path id="Vector_3" d="M330.748 292.959C333.114 292.959 335.033 291.044 335.033 288.682C335.033 286.32 333.114 284.406 330.748 284.406C328.382 284.406 326.464 286.32 326.464 288.682C326.464 291.044 328.382 292.959 330.748 292.959Z" stroke="var(--stroke-0, #84EC21)" stroke-width="1.53451" stroke-miterlimit="10"/>
<path id="Vector_4" d="M330.747 284.391V242.861V128.321L284.215 82.5455V0" stroke="var(--stroke-0, #84EC21)" stroke-width="1.53451" stroke-miterlimit="10"/>
</g>
<g id="Group_5">
<path id="Vector_5" d="M347.51 292.959C349.876 292.959 351.794 291.044 351.794 288.682C351.794 286.32 349.876 284.406 347.51 284.406C345.144 284.406 343.226 286.32 343.226 288.682C343.226 291.044 345.144 292.959 347.51 292.959Z" stroke="var(--stroke-0, #84EC21)" stroke-width="1.53451" stroke-miterlimit="10"/>
<path id="Vector_6" d="M347.534 284.391V242.861V115.835L302.909 73.8368V0" stroke="var(--stroke-0, #84EC21)" stroke-width="1.53451" stroke-miterlimit="10"/>
</g>
<g id="Group_6">
<path id="Vector_7" d="M364.227 292.959C366.593 292.959 368.511 291.044 368.511 288.682C368.511 286.32 366.593 284.406 364.227 284.406C361.861 284.406 359.943 286.32 359.943 288.682C359.943 291.044 361.861 292.959 364.227 292.959Z" stroke="var(--stroke-0, #84EC21)" stroke-width="1.53451" stroke-miterlimit="10"/>
<path id="Vector_8" d="M364.255 284.391V242.861V0" stroke="var(--stroke-0, #84EC21)" stroke-width="1.53451" stroke-miterlimit="10"/>
</g>
<g id="Group_7">
<path id="Vector_9" d="M385.361 288.682C385.361 291.039 383.438 292.959 381.077 292.959C378.716 292.959 376.793 291.039 376.793 288.682C376.793 286.326 378.716 284.406 381.077 284.406C383.438 284.406 385.361 286.326 385.361 288.682Z" stroke="var(--stroke-0, #84EC21)" stroke-width="1.53451" stroke-miterlimit="10"/>
<path id="Vector_10" d="M381 284.391V242.861V171.896L414.508 151.404V0" stroke="var(--stroke-0, #84EC21)" stroke-width="1.53451" stroke-miterlimit="10"/>
</g>
<g id="Group_8">
<path id="Vector_11" d="M397.809 292.959C400.175 292.959 402.093 291.044 402.093 288.682C402.093 286.32 400.175 284.406 397.809 284.406C395.443 284.406 393.525 286.32 393.525 288.682C393.525 291.044 395.443 292.959 397.809 292.959Z" stroke="var(--stroke-0, #84EC21)" stroke-width="1.53451" stroke-miterlimit="10"/>
<path id="Vector_12" d="M397.747 284.391V242.861V180.573L429.019 163.218V0" stroke="var(--stroke-0, #84EC21)" stroke-width="1.53451" stroke-miterlimit="10"/>
</g>
<g id="Group_9">
<path id="Vector_13" d="M414.555 292.959C416.921 292.959 418.839 291.044 418.839 288.682C418.839 286.32 416.921 284.406 414.555 284.406C412.189 284.406 410.271 286.32 410.271 288.682C410.271 291.044 412.189 292.959 414.555 292.959Z" stroke="var(--stroke-0, #84EC21)" stroke-width="1.53451" stroke-miterlimit="10"/>
<path id="Vector_14" d="M414.509 284.391V242.861V201.159V191.795L446.751 175.017V0" stroke="var(--stroke-0, #84EC21)" stroke-width="1.53451" stroke-miterlimit="10"/>
</g>
<g id="Group_10">
<path id="Vector_15" d="M431.315 292.959C433.682 292.959 435.6 291.044 435.6 288.682C435.6 286.32 433.682 284.406 431.315 284.406C428.949 284.406 427.031 286.32 427.031 288.682C427.031 291.044 428.949 292.959 431.315 292.959Z" stroke="var(--stroke-0, #84EC21)" stroke-width="1.53451" stroke-miterlimit="10"/>
<path id="Vector_16" d="M431.255 284.391V242.861V218.842L471.284 200.347V65.1593L512.125 49.1933V0" stroke="var(--stroke-0, #84EC21)" stroke-width="1.53451" stroke-miterlimit="10"/>
</g>
<g id="Group_11">
<path id="Vector_17" d="M447.909 292.959C450.275 292.959 452.193 291.044 452.193 288.682C452.193 286.32 450.275 284.406 447.909 284.406C445.543 284.406 443.625 286.32 443.625 288.682C443.625 291.044 445.543 292.959 447.909 292.959Z" stroke="var(--stroke-0, #84EC21)" stroke-width="1.53451" stroke-miterlimit="10"/>
<path id="Vector_18" d="M448.002 284.391V242.861V229.251L486.06 212.084V77.3483L532.468 60.4772V0" stroke="var(--stroke-0, #84EC21)" stroke-width="1.53451" stroke-miterlimit="10"/>
</g>
<g id="Group_12">
<path id="Vector_19" d="M464.704 292.959C467.07 292.959 468.988 291.044 468.988 288.682C468.988 286.32 467.07 284.406 464.704 284.406C462.338 284.406 460.419 286.32 460.419 288.682C460.419 291.044 462.338 292.959 464.704 292.959Z" fill="var(--fill-0, #D9D9D9)" stroke="var(--stroke-0, #84EC21)" stroke-width="1.53451" stroke-miterlimit="10"/>
<path id="Vector_20" d="M464.748 284.391V242.861L508.169 226.38V90.864L554.874 75.7876V0" stroke="var(--stroke-0, #84EC21)" stroke-width="1.53451" stroke-miterlimit="10"/>
</g>
</g>
<g id="Group_13">
<g id="Group_14">
<path id="Vector_21" d="M467.516 495.598C469.882 495.598 471.8 493.684 471.8 491.322C471.8 488.96 469.882 487.045 467.516 487.045C465.15 487.045 463.231 488.96 463.231 491.322C463.231 493.684 465.15 495.598 467.516 495.598Z" stroke="var(--stroke-0, #84EC21)" stroke-width="1.53451" stroke-miterlimit="10"/>
<path id="Vector_22" d="M467.467 495.614V537.144V641.258L514.312 688.095V780.005" stroke="var(--stroke-0, #84EC21)" stroke-width="1.53451" stroke-miterlimit="10"/>
</g>
<g id="Group_15">
<path id="Vector_23" d="M450.592 495.598C452.958 495.598 454.876 493.684 454.876 491.322C454.876 488.96 452.958 487.046 450.592 487.046C448.226 487.046 446.307 488.96 446.307 491.322C446.307 493.684 448.226 495.598 450.592 495.598Z" stroke="var(--stroke-0, #84EC21)" stroke-width="1.53451" stroke-miterlimit="10"/>
<path id="Vector_24" d="M450.722 495.614V537.144V651.684L497.255 697.459V780.005" stroke="var(--stroke-0, #84EC21)" stroke-width="1.53451" stroke-miterlimit="10"/>
</g>
<g id="Group_16">
<path id="Vector_25" d="M433.897 495.598C436.263 495.598 438.181 493.684 438.181 491.322C438.181 488.96 436.263 487.046 433.897 487.046C431.531 487.046 429.613 488.96 429.613 491.322C429.613 493.684 431.531 495.598 433.897 495.598Z" stroke="var(--stroke-0, #84EC21)" stroke-width="1.53451" stroke-miterlimit="10"/>
<path id="Vector_26" d="M433.975 495.614V537.144V664.169L478.584 706.168V780.005" stroke="var(--stroke-0, #84EC21)" stroke-width="1.53451" stroke-miterlimit="10"/>
</g>
<g id="Group_17">
<path id="Vector_27" d="M417.222 495.598C419.588 495.598 421.506 493.683 421.506 491.322C421.506 488.96 419.588 487.045 417.222 487.045C414.856 487.045 412.938 488.96 412.938 491.322C412.938 493.683 414.856 495.598 417.222 495.598Z" stroke="var(--stroke-0, #84EC21)" stroke-width="1.53451" stroke-miterlimit="10"/>
<path id="Vector_28" d="M417.213 495.614V537.144V780.004" stroke="var(--stroke-0, #84EC21)" stroke-width="1.53451" stroke-miterlimit="10"/>
</g>
<g id="Group_18">
<path id="Vector_29" d="M400.468 495.598C402.834 495.598 404.752 493.684 404.752 491.322C404.752 488.96 402.834 487.045 400.468 487.045C398.102 487.045 396.184 488.96 396.184 491.322C396.184 493.684 398.102 495.598 400.468 495.598Z" fill="var(--fill-0, #D9D9D9)" stroke="var(--stroke-0, #84EC21)" stroke-width="1.53451" stroke-miterlimit="10"/>
<path id="Vector_30" d="M400.363 495.614V537.144V608.109L366.871 628.601V780.005" stroke="var(--stroke-0, #84EC21)" stroke-width="1.53451" stroke-miterlimit="10"/>
</g>
<g id="Group_19">
<path id="Vector_31" d="M383.722 495.598C386.089 495.598 388.007 493.683 388.007 491.322C388.007 488.96 386.089 487.045 383.722 487.045C381.356 487.045 379.438 488.96 379.438 491.322C379.438 493.683 381.356 495.598 383.722 495.598Z" stroke="var(--stroke-0, #84EC21)" stroke-width="1.53451" stroke-miterlimit="10"/>
<path id="Vector_32" d="M383.639 495.614V537.144V599.431L352.383 616.786V780.004" stroke="var(--stroke-0, #84EC21)" stroke-width="1.53451" stroke-miterlimit="10"/>
</g>
<g id="Group_20">
<path id="Vector_33" d="M366.975 495.598C369.342 495.598 371.26 493.683 371.26 491.322C371.26 488.96 369.342 487.045 366.975 487.045C364.609 487.045 362.691 488.96 362.691 491.322C362.691 493.683 364.609 495.598 366.975 495.598Z" stroke="var(--stroke-0, #84EC21)" stroke-width="1.53451" stroke-miterlimit="10"/>
<path id="Vector_34" d="M366.978 495.614V537.144V578.846V588.21L334.721 604.987V780.004" stroke="var(--stroke-0, #84EC21)" stroke-width="1.53451" stroke-miterlimit="10"/>
</g>
<g id="Group_21">
<path id="Vector_35" d="M350.215 495.598C352.581 495.598 354.499 493.684 354.499 491.322C354.499 488.96 352.581 487.045 350.215 487.045C347.848 487.045 345.93 488.96 345.93 491.322C345.93 493.684 347.848 495.598 350.215 495.598Z" stroke="var(--stroke-0, #84EC21)" stroke-width="1.53451" stroke-miterlimit="10"/>
<path id="Vector_36" d="M350.241 495.614V537.144V561.163L310.228 579.657V714.845L269.372 730.811V780.005" stroke="var(--stroke-0, #84EC21)" stroke-width="1.53451" stroke-miterlimit="10"/>
</g>
<g id="Group_22">
<path id="Vector_37" d="M333.467 495.598C335.833 495.598 337.752 493.683 337.752 491.322C337.752 488.96 335.833 487.045 333.467 487.045C331.101 487.045 329.183 488.96 329.183 491.322C329.183 493.683 331.101 495.598 333.467 495.598Z" stroke="var(--stroke-0, #84EC21)" stroke-width="1.53451" stroke-miterlimit="10"/>
<path id="Vector_38" d="M333.566 495.614V537.144V550.753L295.508 567.921V702.656L249.116 719.527V780.004" stroke="var(--stroke-0, #84EC21)" stroke-width="1.53451" stroke-miterlimit="10"/>
</g>
<g id="Group_23">
<path id="Vector_39" d="M316.721 495.598C319.087 495.598 321.006 493.683 321.006 491.322C321.006 488.96 319.087 487.045 316.721 487.045C314.355 487.045 312.437 488.96 312.437 491.322C312.437 493.683 314.355 495.598 316.721 495.598Z" stroke="var(--stroke-0, #84EC21)" stroke-width="1.53451" stroke-miterlimit="10"/>
<path id="Vector_40" d="M316.722 495.614V537.144L273.301 553.625V689.14L226.612 704.217V780.004" stroke="var(--stroke-0, #84EC21)" stroke-width="1.53451" stroke-miterlimit="10"/>
</g>
</g>
<g id="Group_24">
<g id="Group_25">
<path id="Vector_41" d="M289.219 470.864C291.585 470.864 293.503 468.949 293.503 466.587C293.503 464.225 291.585 462.311 289.219 462.311C286.853 462.311 284.934 464.225 284.934 466.587C284.934 468.949 286.853 470.864 289.219 470.864Z" fill="var(--fill-0, #D9D9D9)" stroke="var(--stroke-0, #84EC21)" stroke-width="1.53451" stroke-miterlimit="10"/>
<path id="Vector_42" d="M284.934 466.587H243.311H139.019L92.0958 513.346H0" stroke="var(--stroke-0, #84EC21)" stroke-width="1.53451" stroke-miterlimit="10"/>
</g>
<g id="Group_26">
<path id="Vector_43" d="M289.219 454.149C291.585 454.149 293.503 452.234 293.503 449.872C293.503 447.511 291.585 445.596 289.219 445.596C286.853 445.596 284.934 447.511 284.934 449.872C284.934 452.234 286.853 454.149 289.219 454.149Z" stroke="var(--stroke-0, #84EC21)" stroke-width="1.53451" stroke-miterlimit="10"/>
<path id="Vector_44" d="M284.934 449.871H243.311H128.575L82.7143 496.318H0" stroke="var(--stroke-0, #84EC21)" stroke-width="1.53451" stroke-miterlimit="10"/>
</g>
<g id="Group_27">
<path id="Vector_45" d="M289.219 437.432C291.585 437.432 293.503 435.518 293.503 433.156C293.503 430.794 291.585 428.88 289.219 428.88C286.853 428.88 284.934 430.794 284.934 433.156C284.934 435.518 286.853 437.432 289.219 437.432Z" stroke="var(--stroke-0, #84EC21)" stroke-width="1.53451" stroke-miterlimit="10"/>
<path id="Vector_46" d="M284.934 433.155H243.311H116.066L73.9894 477.682H0" stroke="var(--stroke-0, #84EC21)" stroke-width="1.53451" stroke-miterlimit="10"/>
</g>
<g id="Group_28">
<path id="Vector_47" d="M289.219 420.718C291.585 420.718 293.503 418.804 293.503 416.442C293.503 414.08 291.585 412.166 289.219 412.166C286.853 412.166 284.934 414.08 284.934 416.442C284.934 418.804 286.853 420.718 289.219 420.718Z" stroke="var(--stroke-0, #84EC21)" stroke-width="1.53451" stroke-miterlimit="10"/>
<path id="Vector_48" d="M284.934 416.442H243.311H0" stroke="var(--stroke-0, #84EC21)" stroke-width="1.53451" stroke-miterlimit="10"/>
</g>
<g id="Group_29">
<path id="Vector_49" d="M289.219 403.989C291.585 403.989 293.503 402.075 293.503 399.713C293.503 397.351 291.585 395.437 289.219 395.437C286.853 395.437 284.934 397.351 284.934 399.713C284.934 402.075 286.853 403.989 289.219 403.989Z" stroke="var(--stroke-0, #84EC21)" stroke-width="1.53451" stroke-miterlimit="10"/>
<path id="Vector_50" d="M284.934 399.712H243.311H172.23L151.7 366.281H0" stroke="var(--stroke-0, #84EC21)" stroke-width="1.53451" stroke-miterlimit="10"/>
</g>
<g id="Group_30">
<path id="Vector_51" d="M289.219 387.273C291.585 387.273 293.503 385.358 293.503 382.996C293.503 380.635 291.585 378.72 289.219 378.72C286.853 378.72 284.934 380.635 284.934 382.996C284.934 385.358 286.853 387.273 289.219 387.273Z" stroke="var(--stroke-0, #84EC21)" stroke-width="1.53451" stroke-miterlimit="10"/>
<path id="Vector_52" d="M284.934 382.996H243.311H180.908L163.537 351.797H0" stroke="var(--stroke-0, #84EC21)" stroke-width="1.53451" stroke-miterlimit="10"/>
</g>
<g id="Group_31">
<path id="Vector_53" d="M289.219 362.005C291.58 362.005 293.503 363.924 293.503 366.281C293.503 368.638 291.58 370.557 289.219 370.557C286.858 370.557 284.935 368.638 284.935 366.281C284.935 363.924 286.858 362.005 289.219 362.005Z" fill="var(--fill-0, #D9D9D9)" stroke="var(--stroke-0, #84EC21)" stroke-width="1.53451" stroke-miterlimit="10"/>
<path id="Vector_54" d="M285.025 366.28H243.402H201.638H192.257L175.448 334.098H0.0907934" stroke="var(--stroke-0, #84EC21)" stroke-width="1.53451" stroke-miterlimit="10"/>
</g>
<g id="Group_32">
<path id="Vector_55" d="M289.219 353.84C291.585 353.84 293.503 351.926 293.503 349.564C293.503 347.202 291.585 345.288 289.219 345.288C286.853 345.288 284.935 347.202 284.935 349.564C284.935 351.926 286.853 353.84 289.219 353.84Z" stroke="var(--stroke-0, #84EC21)" stroke-width="1.53451" stroke-miterlimit="10"/>
<path id="Vector_56" d="M285.025 349.563H243.402H219.354L200.825 309.609H65.3866L49.3754 268.828H0.0907934" stroke="var(--stroke-0, #84EC21)" stroke-width="1.53451" stroke-miterlimit="10"/>
</g>
<g id="Group_33">
<path id="Vector_57" d="M289.219 337.111C291.585 337.111 293.503 335.196 293.503 332.834C293.503 330.473 291.585 328.558 289.219 328.558C286.853 328.558 284.935 330.473 284.935 332.834C284.935 335.196 286.853 337.111 289.219 337.111Z" stroke="var(--stroke-0, #84EC21)" stroke-width="1.53451" stroke-miterlimit="10"/>
<path id="Vector_58" d="M285.025 332.835H243.402H229.783L212.568 294.847H77.5826L60.6958 248.541H0.0907934" stroke="var(--stroke-0, #84EC21)" stroke-width="1.53451" stroke-miterlimit="10"/>
</g>
<g id="Group_34">
<path id="Vector_59" d="M289.218 320.395C291.584 320.395 293.502 318.481 293.502 316.119C293.502 313.757 291.584 311.843 289.218 311.843C286.852 311.843 284.934 313.757 284.934 316.119C284.934 318.481 286.852 320.395 289.218 320.395Z" stroke="var(--stroke-0, #84EC21)" stroke-width="1.53451" stroke-miterlimit="10"/>
<path id="Vector_60" d="M284.967 316.119H243.344L226.833 272.778H91.0813L75.9613 226.176H0.033064" stroke="var(--stroke-0, #84EC21)" stroke-width="1.53451" stroke-miterlimit="10"/>
</g>
</g>
<g id="Group_35">
<g id="Group_36">
<path id="Vector_61" d="M492.156 317.696C489.795 317.696 487.872 315.776 487.872 313.419C487.872 311.063 489.795 309.143 492.156 309.143C494.517 309.143 496.44 311.063 496.44 313.419C496.44 315.776 494.517 317.696 492.156 317.696Z" stroke="var(--stroke-0, #84EC21)" stroke-width="1.53451" stroke-miterlimit="10"/>
<path id="Vector_62" d="M496.534 313.419H538.157H642.464L689.388 266.661H779.998" stroke="var(--stroke-0, #84EC21)" stroke-width="1.53451" stroke-miterlimit="10"/>
</g>
<g id="Group_37">
<path id="Vector_63" d="M492.335 334.412C489.974 334.412 488.051 332.492 488.051 330.135C488.051 327.779 489.974 325.859 492.335 325.859C494.696 325.859 496.619 327.779 496.619 330.135C496.619 332.492 494.696 334.412 492.335 334.412Z" stroke="var(--stroke-0, #84EC21)" stroke-width="1.53451" stroke-miterlimit="10"/>
<path id="Vector_64" d="M496.535 330.134H538.158H652.895L698.771 283.688H780" stroke="var(--stroke-0, #84EC21)" stroke-width="1.53451" stroke-miterlimit="10"/>
</g>
<g id="Group_38">
<path id="Vector_65" d="M492.335 351.126C489.974 351.126 488.051 349.207 488.051 346.85C488.051 344.493 489.974 342.574 492.335 342.574C494.696 342.574 496.619 344.493 496.619 346.85C496.619 349.207 494.696 351.126 492.335 351.126Z" stroke="var(--stroke-0, #84EC21)" stroke-width="1.53451" stroke-miterlimit="10"/>
<path id="Vector_66" d="M496.535 346.85H538.158H665.404L707.496 302.323H780" stroke="var(--stroke-0, #84EC21)" stroke-width="1.53451" stroke-miterlimit="10"/>
</g>
<g id="Group_39">
<path id="Vector_67" d="M492.174 367.857C489.813 367.857 487.89 365.937 487.89 363.581C487.89 361.224 489.813 359.304 492.174 359.304C494.535 359.304 496.459 361.224 496.459 363.581C496.459 365.937 494.535 367.857 492.174 367.857Z" fill="var(--fill-0, #D9D9D9)" stroke="var(--stroke-0, #84EC21)" stroke-width="1.53451" stroke-miterlimit="10"/>
<path id="Vector_68" d="M496.534 363.566H538.157H779.999" stroke="var(--stroke-0, #84EC21)" stroke-width="1.53451" stroke-miterlimit="10"/>
</g>
<g id="Group_40">
<path id="Vector_69" d="M492.174 384.572C489.813 384.572 487.89 382.652 487.89 380.296C487.89 377.939 489.813 376.02 492.174 376.02C494.535 376.02 496.459 377.939 496.459 380.296C496.459 382.652 494.535 384.572 492.174 384.572Z" stroke="var(--stroke-0, #84EC21)" stroke-width="1.53451" stroke-miterlimit="10"/>
<path id="Vector_70" d="M496.534 380.297H538.157H609.254L629.784 413.727H779.999" stroke="var(--stroke-0, #84EC21)" stroke-width="1.53451" stroke-miterlimit="10"/>
</g>
<g id="Group_41">
<path id="Vector_71" d="M492.156 401.288C489.795 401.288 487.872 399.369 487.872 397.012C487.872 394.655 489.795 392.736 492.156 392.736C494.517 392.736 496.44 394.655 496.44 397.012C496.44 399.369 494.517 401.288 492.156 401.288Z" stroke="var(--stroke-0, #84EC21)" stroke-width="1.53451" stroke-miterlimit="10"/>
<path id="Vector_72" d="M496.534 397.012H538.157H600.56L617.931 428.211H779.998" stroke="var(--stroke-0, #84EC21)" stroke-width="1.53451" stroke-miterlimit="10"/>
</g>
<g id="Group_42">
<path id="Vector_73" d="M492.174 418.002C489.813 418.002 487.89 416.082 487.89 413.726C487.89 411.369 489.813 409.449 492.174 409.449C494.535 409.449 496.459 411.369 496.459 413.726C496.459 416.082 494.535 418.002 492.174 418.002Z" stroke="var(--stroke-0, #84EC21)" stroke-width="1.53451" stroke-miterlimit="10"/>
<path id="Vector_74" d="M496.534 413.726H538.157H579.937H589.318L606.127 445.908H779.999" stroke="var(--stroke-0, #84EC21)" stroke-width="1.53451" stroke-miterlimit="10"/>
</g>
<g id="Group_43">
<path id="Vector_75" d="M492.156 434.733C489.795 434.733 487.872 432.814 487.872 430.457C487.872 428.1 489.795 426.181 492.156 426.181C494.517 426.181 496.44 428.1 496.44 430.457C496.44 432.814 494.517 434.733 492.156 434.733Z" stroke="var(--stroke-0, #84EC21)" stroke-width="1.53451" stroke-miterlimit="10"/>
<path id="Vector_76" d="M496.534 430.441H538.157H562.205L580.749 470.395H716.188L732.183 511.176H779.998" stroke="var(--stroke-0, #84EC21)" stroke-width="1.53451" stroke-miterlimit="10"/>
</g>
<g id="Group_44">
<path id="Vector_77" d="M492.156 451.449C489.795 451.449 487.872 449.53 487.872 447.173C487.872 444.816 489.795 442.897 492.156 442.897C494.517 442.897 496.44 444.816 496.44 447.173C496.44 449.53 494.517 451.449 492.156 451.449Z" stroke="var(--stroke-0, #84EC21)" stroke-width="1.53451" stroke-miterlimit="10"/>
<path id="Vector_78" d="M496.534 447.172H538.157H551.791L568.991 485.16H703.976L720.879 531.466H779.998" stroke="var(--stroke-0, #84EC21)" stroke-width="1.53451" stroke-miterlimit="10"/>
</g>
<g id="Group_45">
<path id="Vector_79" d="M492.174 468.162C489.813 468.162 487.89 466.242 487.89 463.886C487.89 461.529 489.813 459.609 492.174 459.609C494.535 459.609 496.458 461.529 496.458 463.886C496.458 466.242 494.535 468.162 492.174 468.162Z" fill="var(--fill-0, white)" stroke="var(--stroke-0, #84EC21)" stroke-width="1.53451" stroke-miterlimit="10"/>
<path id="Vector_80" d="M496.534 463.886H538.157L554.669 507.227H690.42L705.54 553.829H779.999" stroke="var(--stroke-0, #84EC21)" stroke-width="1.53451" stroke-miterlimit="10"/>
</g>
</g>
</g>
</mask>
<g mask="url(#mask0_0_39)">
<g id="Ellipse 2296" filter="url(#filter0_f_0_39)">
<ellipse cx="388.227" cy="390.586" rx="135.939" ry="158.853" fill="var(--fill-0, white)" fill-opacity="0.1"/>
</g>
<g id="Ornament" filter="url(#filter1_f_0_39)">
<rect width="5.3185" height="5.71369" rx="2.65925" transform="matrix(-0.816173 -0.577807 0.46026 -0.887784 413.653 288.755)" fill="var(--fill-0, white)"/>
</g>
<g id="Ornament_2" filter="url(#filter2_f_0_39)">
<rect width="5.17426" height="9.7419" rx="2.58713" transform="matrix(-0.92652 -0.376244 0.285042 -0.958515 357.917 240.92)" fill="var(--fill-0, #5160FF)"/>
</g>
<g id="Ornament_3" filter="url(#filter3_f_0_39)">
<rect width="5.3185" height="5.71369" rx="2.65925" transform="matrix(-0.816173 -0.577807 0.46026 -0.887784 441.538 366.728)" fill="var(--fill-0, white)"/>
</g>
<g id="Ornament_4" filter="url(#filter4_f_0_39)">
<rect width="5.3185" height="5.71369" rx="2.65925" transform="matrix(-0.816173 -0.577807 0.46026 -0.887784 327.011 284.101)" fill="var(--fill-0, #5160FF)"/>
</g>
<g id="Ornament_5" filter="url(#filter5_f_0_39)">
<rect width="11.804" height="5.7916" rx="2.8958" transform="matrix(-0.88174 -0.471735 0.364791 -0.931089 480.592 369.685)" fill="var(--fill-0, #5160FF)"/>
</g>
<g id="Ornament_6" filter="url(#filter6_f_0_39)">
<rect width="5.3185" height="5.71369" rx="2.65925" transform="matrix(-0.816173 -0.577807 0.46026 -0.887784 444.526 467.976)" fill="var(--fill-0, white)"/>
</g>
<g id="Ornament_7" filter="url(#filter7_f_0_39)">
<rect width="5.3185" height="5.71369" rx="2.65925" transform="matrix(-0.816173 -0.577807 0.46026 -0.887784 374.813 513.36)" fill="var(--fill-0, #5160FF)"/>
</g>
<g id="Ornament_8" filter="url(#filter8_f_0_39)">
<rect width="4.99849" height="5.92276" rx="2.49925" transform="matrix(-0.816173 -0.577807 0.46026 -0.887784 150.477 378.366)" fill="var(--fill-0, #5160FF)"/>
</g>
<g id="Ornament_9" filter="url(#filter9_f_0_39)">
<rect width="4.99849" height="12.0235" rx="2.49925" transform="matrix(-0.816173 -0.577807 0.46026 -0.887784 246.083 589.768)" fill="var(--fill-0, #5160FF)"/>
</g>
<g id="Ornament_10" filter="url(#filter10_f_0_39)">
<rect width="8.21702" height="5.13887" rx="2.56944" transform="matrix(-0.816173 -0.577807 0.46026 -0.887784 479.025 470.302)" fill="var(--fill-0, #5160FF)"/>
</g>
<g id="Ornament_11" filter="url(#filter11_f_0_39)">
<rect width="5.3185" height="5.71369" rx="2.65925" transform="matrix(-0.816173 -0.577807 0.46026 -0.887784 254.311 470.302)" fill="var(--fill-0, #5160FF)"/>
</g>
<g id="Ornament_12" filter="url(#filter12_f_0_39)">
<rect width="6.89977" height="8.64928" rx="3.44988" transform="matrix(0.232339 -0.972635 0.950699 0.310114 209.247 418.069)" fill="var(--fill-0, #5160FF)"/>
</g>
<g id="Ornament_13" filter="url(#filter13_f_0_39)">
<rect width="6.89977" height="8.54499" rx="3.44988" transform="matrix(0.232339 -0.972635 0.950699 0.310114 252.957 367.62)" fill="var(--fill-0, #5160FF)"/>
</g>
<g id="Ornament_14" filter="url(#filter14_f_0_39)">
<rect width="6.05457" height="9.74299" rx="3.02728" transform="matrix(0.941913 0.335857 -0.252648 0.967558 298.027 494.856)" fill="var(--fill-0, #5160FF)"/>
</g>
<g id="Ornament_15" filter="url(#filter15_f_0_39)">
<rect width="6.05457" height="9.74299" rx="3.02728" transform="matrix(0.941913 0.335857 -0.252648 0.967558 328.119 547.111)" fill="var(--fill-0, #5160FF)"/>
</g>
<g id="Ornament_16" filter="url(#filter16_f_0_39)">
<rect width="6.05457" height="17.1213" rx="3.02728" transform="matrix(0.941913 0.335857 -0.252648 0.967558 412.643 516.854)" fill="var(--fill-0, #5160FF)"/>
</g>
<g id="Ornament_17" filter="url(#filter17_f_0_39)">
<rect width="6.47816" height="16.1349" rx="3.23908" transform="matrix(0.654908 0.755708 -0.645439 0.763812 548.196 355.091)" fill="var(--fill-0, #5160FF)" fill-opacity="0.4"/>
</g>
<g id="Ornament_18" filter="url(#filter18_f_0_39)">
<rect width="6.47816" height="16.1349" rx="3.23908" transform="matrix(0.654908 0.755708 -0.645439 0.763812 446.616 307.375)" fill="var(--fill-0, #5160FF)"/>
</g>
<g id="Ornament_19" filter="url(#filter19_f_0_39)">
<rect width="6.57975" height="15.8789" rx="3.28987" transform="matrix(0.576145 0.817347 -0.720463 0.693493 533.997 481.193)" fill="var(--fill-0, #5160FF)"/>
</g>
<g id="Ornament_20" filter="url(#filter20_f_0_39)">
<rect width="6.80316" height="10.8374" rx="3.40158" transform="matrix(0.365747 0.930714 -0.881146 0.472843 445.387 223.613)" fill="var(--fill-0, #5160FF)" fill-opacity="0.5"/>
</g>
<g id="Ornament_21" filter="url(#filter21_f_0_39)">
<rect width="13.2432" height="5.07546" rx="2.53773" transform="matrix(-0.0120446 -0.999927 0.999865 -0.0164464 281.997 286.953)" fill="var(--fill-0, #5160FF)"/>
</g>
<g id="Ornament_22" filter="url(#filter22_f_0_39)">
<rect width="13.2432" height="5.07546" rx="2.53773" transform="matrix(-0.0120446 -0.999927 0.999865 -0.0164464 309.883 227.603)" fill="var(--fill-0, #5160FF)"/>
</g>
<g id="Ornament_23" filter="url(#filter23_f_0_39)">
<rect width="5.3185" height="5.71369" rx="2.65925" transform="matrix(-0.816173 -0.577807 0.46026 -0.887784 264.27 370.218)" fill="var(--fill-0, white)"/>
</g>
</g>
</g>
<defs>
<filter id="filter0_f_0_39" x="160.749" y="140.194" width="454.955" height="500.784" filterUnits="userSpaceOnUse" color-interpolation-filters="sRGB">
<feFlood flood-opacity="0" result="BackgroundImageFix"/>
<feBlend mode="normal" in="SourceGraphic" in2="BackgroundImageFix" result="shape"/>
<feGaussianBlur stdDeviation="45.7693" result="effect1_foregroundBlur_0_39"/>
</filter>
<filter id="filter1_f_0_39" x="404.493" y="275.969" width="16.6086" height="17.4275" filterUnits="userSpaceOnUse" color-interpolation-filters="sRGB">
<feFlood flood-opacity="0" result="BackgroundImageFix"/>
<feBlend mode="normal" in="SourceGraphic" in2="BackgroundImageFix" result="shape"/>
<feGaussianBlur stdDeviation="2.86058" result="effect1_foregroundBlur_0_39"/>
</filter>
<filter id="filter2_f_0_39" x="348.028" y="224.703" width="17.7614" height="21.1499" filterUnits="userSpaceOnUse" color-interpolation-filters="sRGB">
<feFlood flood-opacity="0" result="BackgroundImageFix"/>
<feBlend mode="normal" in="SourceGraphic" in2="BackgroundImageFix" result="shape"/>
<feGaussianBlur stdDeviation="2.86058" result="effect1_foregroundBlur_0_39"/>
</filter>
<filter id="filter3_f_0_39" x="432.378" y="353.941" width="16.6086" height="17.4275" filterUnits="userSpaceOnUse" color-interpolation-filters="sRGB">
<feFlood flood-opacity="0" result="BackgroundImageFix"/>
<feBlend mode="normal" in="SourceGraphic" in2="BackgroundImageFix" result="shape"/>
<feGaussianBlur stdDeviation="2.86058" result="effect1_foregroundBlur_0_39"/>
</filter>
<filter id="filter4_f_0_39" x="317.851" y="271.315" width="16.6086" height="17.4275" filterUnits="userSpaceOnUse" color-interpolation-filters="sRGB">
<feFlood flood-opacity="0" result="BackgroundImageFix"/>
<feBlend mode="normal" in="SourceGraphic" in2="BackgroundImageFix" result="shape"/>
<feGaussianBlur stdDeviation="2.86058" result="effect1_foregroundBlur_0_39"/>
</filter>
<filter id="filter5_f_0_39" x="465.308" y="354.042" width="22.2716" height="20.325" filterUnits="userSpaceOnUse" color-interpolation-filters="sRGB">
<feFlood flood-opacity="0" result="BackgroundImageFix"/>
<feBlend mode="normal" in="SourceGraphic" in2="BackgroundImageFix" result="shape"/>
<feGaussianBlur stdDeviation="2.86058" result="effect1_foregroundBlur_0_39"/>
</filter>
<filter id="filter6_f_0_39" x="435.366" y="455.189" width="16.6086" height="17.4275" filterUnits="userSpaceOnUse" color-interpolation-filters="sRGB">
<feFlood flood-opacity="0" result="BackgroundImageFix"/>
<feBlend mode="normal" in="SourceGraphic" in2="BackgroundImageFix" result="shape"/>
<feGaussianBlur stdDeviation="2.86058" result="effect1_foregroundBlur_0_39"/>
</filter>
<filter id="filter7_f_0_39" x="365.654" y="500.574" width="16.6086" height="17.4275" filterUnits="userSpaceOnUse" color-interpolation-filters="sRGB">
<feFlood flood-opacity="0" result="BackgroundImageFix"/>
<feBlend mode="normal" in="SourceGraphic" in2="BackgroundImageFix" result="shape"/>
<feGaussianBlur stdDeviation="2.86058" result="effect1_foregroundBlur_0_39"/>
</filter>
<filter id="filter8_f_0_39" x="141.524" y="365.513" width="16.5522" height="17.5582" filterUnits="userSpaceOnUse" color-interpolation-filters="sRGB">
<feFlood flood-opacity="0" result="BackgroundImageFix"/>
<feBlend mode="normal" in="SourceGraphic" in2="BackgroundImageFix" result="shape"/>
<feGaussianBlur stdDeviation="2.86058" result="effect1_foregroundBlur_0_39"/>
</filter>
<filter id="filter9_f_0_39" x="237.13" y="571.5" width="19.3601" height="22.9744" filterUnits="userSpaceOnUse" color-interpolation-filters="sRGB">
<feFlood flood-opacity="0" result="BackgroundImageFix"/>
<feBlend mode="normal" in="SourceGraphic" in2="BackgroundImageFix" result="shape"/>
<feGaussianBlur stdDeviation="2.86058" result="effect1_foregroundBlur_0_39"/>
</filter>
<filter id="filter10_f_0_39" x="467.469" y="456.315" width="18.7706" height="18.6649" filterUnits="userSpaceOnUse" color-interpolation-filters="sRGB">
<feFlood flood-opacity="0" result="BackgroundImageFix"/>
<feBlend mode="normal" in="SourceGraphic" in2="BackgroundImageFix" result="shape"/>
<feGaussianBlur stdDeviation="2.86058" result="effect1_foregroundBlur_0_39"/>
</filter>
<filter id="filter11_f_0_39" x="245.151" y="457.516" width="16.6086" height="17.4275" filterUnits="userSpaceOnUse" color-interpolation-filters="sRGB">
<feFlood flood-opacity="0" result="BackgroundImageFix"/>
<feBlend mode="normal" in="SourceGraphic" in2="BackgroundImageFix" result="shape"/>
<feGaussianBlur stdDeviation="2.86058" result="effect1_foregroundBlur_0_39"/>
</filter>
<filter id="filter12_f_0_39" x="204.231" y="406.539" width="19.8598" height="19.0306" filterUnits="userSpaceOnUse" color-interpolation-filters="sRGB">
<feFlood flood-opacity="0" result="BackgroundImageFix"/>
<feBlend mode="normal" in="SourceGraphic" in2="BackgroundImageFix" result="shape"/>
<feGaussianBlur stdDeviation="2.86058" result="effect1_foregroundBlur_0_39"/>
</filter>
<filter id="filter13_f_0_39" x="247.94" y="356.09" width="19.7607" height="18.9982" filterUnits="userSpaceOnUse" color-interpolation-filters="sRGB">
<feFlood flood-opacity="0" result="BackgroundImageFix"/>
<feBlend mode="normal" in="SourceGraphic" in2="BackgroundImageFix" result="shape"/>
<feGaussianBlur stdDeviation="2.86058" result="effect1_foregroundBlur_0_39"/>
</filter>
<filter id="filter14_f_0_39" x="290.508" y="489.979" width="18.2801" height="21.2138" filterUnits="userSpaceOnUse" color-interpolation-filters="sRGB">
<feFlood flood-opacity="0" result="BackgroundImageFix"/>
<feBlend mode="normal" in="SourceGraphic" in2="BackgroundImageFix" result="shape"/>
<feGaussianBlur stdDeviation="2.86058" result="effect1_foregroundBlur_0_39"/>
</filter>
<filter id="filter15_f_0_39" x="320.599" y="542.235" width="18.2801" height="21.2138" filterUnits="userSpaceOnUse" color-interpolation-filters="sRGB">
<feFlood flood-opacity="0" result="BackgroundImageFix"/>
<feBlend mode="normal" in="SourceGraphic" in2="BackgroundImageFix" result="shape"/>
<feGaussianBlur stdDeviation="2.86058" result="effect1_foregroundBlur_0_39"/>
</filter>
<filter id="filter16_f_0_39" x="403.259" y="511.977" width="20.1442" height="28.3528" filterUnits="userSpaceOnUse" color-interpolation-filters="sRGB">
<feFlood flood-opacity="0" result="BackgroundImageFix"/>
<feBlend mode="normal" in="SourceGraphic" in2="BackgroundImageFix" result="shape"/>
<feGaussianBlur stdDeviation="2.86058" result="effect1_foregroundBlur_0_39"/>
</filter>
<filter id="filter17_f_0_39" x="533.294" y="350.811" width="23.6319" height="25.7789" filterUnits="userSpaceOnUse" color-interpolation-filters="sRGB">
<feFlood flood-opacity="0" result="BackgroundImageFix"/>
<feBlend mode="normal" in="SourceGraphic" in2="BackgroundImageFix" result="shape"/>
<feGaussianBlur stdDeviation="2.86058" result="effect1_foregroundBlur_0_39"/>
</filter>
<filter id="filter18_f_0_39" x="431.714" y="303.096" width="23.6319" height="25.7789" filterUnits="userSpaceOnUse" color-interpolation-filters="sRGB">
<feFlood flood-opacity="0" result="BackgroundImageFix"/>
<feBlend mode="normal" in="SourceGraphic" in2="BackgroundImageFix" result="shape"/>
<feGaussianBlur stdDeviation="2.86058" result="effect1_foregroundBlur_0_39"/>
</filter>
<filter id="filter19_f_0_39" x="518.066" y="476.916" width="24.212" height="24.9442" filterUnits="userSpaceOnUse" color-interpolation-filters="sRGB">
<feFlood flood-opacity="0" result="BackgroundImageFix"/>
<feBlend mode="normal" in="SourceGraphic" in2="BackgroundImageFix" result="shape"/>
<feGaussianBlur stdDeviation="2.86058" result="effect1_foregroundBlur_0_39"/>
</filter>
<filter id="filter20_f_0_39" x="431.112" y="219.114" width="21.4893" height="20.4535" filterUnits="userSpaceOnUse" color-interpolation-filters="sRGB">
<feFlood flood-opacity="0" result="BackgroundImageFix"/>
<feBlend mode="normal" in="SourceGraphic" in2="BackgroundImageFix" result="shape"/>
<feGaussianBlur stdDeviation="2.86058" result="effect1_foregroundBlur_0_39"/>
</filter>
<filter id="filter21_f_0_39" x="276.147" y="267.948" width="16.6159" height="24.6853" filterUnits="userSpaceOnUse" color-interpolation-filters="sRGB">
<feFlood flood-opacity="0" result="BackgroundImageFix"/>
<feBlend mode="normal" in="SourceGraphic" in2="BackgroundImageFix" result="shape"/>
<feGaussianBlur stdDeviation="2.86058" result="effect1_foregroundBlur_0_39"/>
</filter>
<filter id="filter22_f_0_39" x="304.033" y="208.598" width="16.6159" height="24.6853" filterUnits="userSpaceOnUse" color-interpolation-filters="sRGB">
<feFlood flood-opacity="0" result="BackgroundImageFix"/>
<feBlend mode="normal" in="SourceGraphic" in2="BackgroundImageFix" result="shape"/>
<feGaussianBlur stdDeviation="2.86058" result="effect1_foregroundBlur_0_39"/>
</filter>
<filter id="filter23_f_0_39" x="255.11" y="357.432" width="16.6086" height="17.4275" filterUnits="userSpaceOnUse" color-interpolation-filters="sRGB">
<feFlood flood-opacity="0" result="BackgroundImageFix"/>
<feBlend mode="normal" in="SourceGraphic" in2="BackgroundImageFix" result="shape"/>
<feGaussianBlur stdDeviation="2.86058" result="effect1_foregroundBlur_0_39"/>
</filter>
</defs>
</svg>
