<svg preserveAspectRatio="none" width="100%" height="100%" overflow="visible" style="display: block;" viewBox="0 0 57.4959 65.2547" fill="none" xmlns="http://www.w3.org/2000/svg">
<g id="Logomark wrapper" filter="url(#filter0_d_0_4)">
<path id="Vector" opacity="0.5" fill-rule="evenodd" clip-rule="evenodd" d="M48.4534 11.026L35.6184 7.61934C34.7323 7.38416 34.014 7.93013 34.014 8.8388V22.0012C34.014 22.9099 34.7323 23.8371 35.6184 24.0723L48.4534 27.479C49.3395 27.7142 50.0578 27.1682 50.0578 26.2595V13.0972C50.0578 12.1885 49.3395 11.2612 48.4534 11.026ZM35.6184 2.68344C32.0741 1.74271 29.2009 3.9266 29.2009 7.5613V20.7237C29.2009 24.3584 32.0741 28.0675 35.6184 29.0082L48.4534 32.4149C51.9977 33.3556 54.8709 31.1717 54.8709 27.537V14.3747C54.8709 10.74 51.9977 7.03085 48.4534 6.09012L35.6184 2.68344Z" fill="url(#paint0_linear_0_4)"/>
<path id="Vector_2" opacity="0.7" fill-rule="evenodd" clip-rule="evenodd" d="M38.3742 21.7492L22.3304 17.4909C21.4444 17.2557 20.7261 17.8017 20.7261 18.7103V35.1633C20.7261 36.072 21.4444 36.9993 22.3304 37.2344L38.3742 41.4928C39.2602 41.728 39.9785 41.182 39.9785 40.2733V23.8203C39.9785 22.9117 39.2602 21.9844 38.3742 21.7492ZM22.3304 12.555C18.7862 11.6142 15.913 13.7981 15.913 17.4328V33.8858C15.913 37.5205 18.7862 41.2296 22.3304 42.1703L38.3742 46.4287C41.9185 47.3694 44.7917 45.1855 44.7917 41.5508V25.0978C44.7917 21.4632 41.9185 17.754 38.3742 16.8133L22.3304 12.555Z" fill="url(#paint1_linear_0_4)"/>
<path id="Vector_3" fill-rule="evenodd" clip-rule="evenodd" d="M28.295 32.4724L9.04249 27.3624C8.15642 27.1272 7.43812 27.6732 7.43812 28.5818V48.3254C7.43812 49.2341 8.15642 50.1614 9.04249 50.3966L28.295 55.5066C29.181 55.7418 29.8993 55.1958 29.8993 54.2871V34.5435C29.8993 33.6349 29.181 32.7076 28.295 32.4724ZM9.04249 22.4265C5.49821 21.4858 2.625 23.6696 2.625 27.3043V47.0479C2.625 50.6826 5.49821 54.3917 9.04249 55.3325L28.295 60.4425C31.8392 61.3832 34.7124 59.1993 34.7124 55.5646V35.821C34.7124 32.1863 31.8392 28.4772 28.295 27.5365L9.04249 22.4265Z" fill="url(#paint2_linear_0_4)"/>
</g>
<defs>
<filter id="filter0_d_0_4" x="0" y="-0.65625" width="58.25" height="68.25" filterUnits="userSpaceOnUse" color-interpolation-filters="sRGB">
<feFlood flood-opacity="0" result="BackgroundImageFix"/>
<feColorMatrix in="SourceAlpha" type="matrix" values="0 0 0 0 0 0 0 0 0 0 0 0 0 0 0 0 0 0 127 0" result="hardAlpha"/>
<feMorphology radius="1.3125" operator="erode" in="SourceAlpha" result="effect1_dropShadow_0_4"/>
<feOffset dy="1.96875"/>
<feGaussianBlur stdDeviation="1.96875"/>
<feComposite in2="hardAlpha" operator="out"/>
<feColorMatrix type="matrix" values="0 0 0 0 0.141176 0 0 0 0 0.141176 0 0 0 0 0.141176 0 0 0 0.1 0"/>
<feBlend mode="normal" in2="BackgroundImageFix" result="effect1_dropShadow_0_4"/>
<feBlend mode="normal" in="SourceGraphic" in2="effect1_dropShadow_0_4" result="shape"/>
</filter>
<linearGradient id="paint0_linear_0_4" x1="42.0359" y1="4.38678" x2="35.5086" y2="28.9791" gradientUnits="userSpaceOnUse">
<stop stop-color="white" stop-opacity="0.8"/>
<stop offset="1" stop-color="white" stop-opacity="0.5"/>
</linearGradient>
<linearGradient id="paint1_linear_0_4" x1="30.3523" y1="14.6841" x2="23.0091" y2="42.3505" gradientUnits="userSpaceOnUse">
<stop stop-color="white" stop-opacity="0.8"/>
<stop offset="1" stop-color="white" stop-opacity="0.5"/>
</linearGradient>
<linearGradient id="paint2_linear_0_4" x1="18.6687" y1="24.9815" x2="10.5096" y2="55.7219" gradientUnits="userSpaceOnUse">
<stop stop-color="white" stop-opacity="0.8"/>
<stop offset="1" stop-color="white" stop-opacity="0.5"/>
</linearGradient>
</defs>
</svg>
